<svg width="1280" height="832" viewBox="0 0 1280 832" fill="none" xmlns="http://www.w3.org/2000/svg">
<path d="M-1.6438 45.4277V1268.7C6.58075 1246.72 27.3278 1196.92 44.5198 1173.6C66.0098 1144.46 31.785 967.295 31.785 958.859C65.2138 910.541 31.785 894.435 31.785 886.766C106.602 796.266 39.7443 720.339 37.3565 708.068C72.3772 682.299 61.4995 656.427 51.6831 646.712C53.0097 646.201 56.2995 644.565 58.8464 642.111C136.051 595.327 75.5609 521.7 68.3975 514.798C-0.0519503 405.125 120.133 413.561 120.133 406.659C72.3772 298.519 210.072 285.481 227.582 302.354C194.154 189.613 341.4 194.982 359.706 224.893C359.706 104.482 501.38 137.461 501.38 165.071C517.299 104.482 584.952 114.453 598.483 114.453C612.81 109.084 623.157 96.813 632.708 88.3766C637.483 100.648 662.953 114.453 670.116 114.453C764.035 113.686 756.872 158.169 761.648 165.071C872.281 88.3766 914.465 201.884 905.71 222.592C1029.08 161.236 1057.73 282.414 1036.24 301.587C1161.2 273.21 1163.59 383.65 1146.08 404.358C1244.77 399.756 1227.26 481.052 1227.26 489.489C1107.87 603.763 1227.26 639.043 1227.26 643.645C1187.47 688.894 1240 704.233 1237.61 707.301C1162 830.779 1237.61 880.63 1237.61 885.999C1200.2 927.414 1237.61 955.791 1237.61 961.16C1210.23 1048.28 1214 1139.09 1219.3 1173.6L1267.06 1255.67V45.4277H-1.6438Z" fill="url(#paint0_linear_1_47)"/>
<path d="M-13 0V1293.85C-4.61769 1270.6 16.5274 1217.92 34.0491 1193.26C55.9513 1162.44 21.07 975.052 21.07 966.129C55.1401 915.024 21.07 897.989 21.07 889.877C97.322 794.156 29.182 713.848 26.7484 700.869C62.4408 673.613 51.3545 646.249 41.3498 635.974C42.7018 635.433 46.0547 633.703 48.6505 631.107C127.336 581.624 65.6856 503.75 58.3848 496.449C-11.3776 380.449 111.112 389.372 111.112 382.071C62.4408 267.693 202.777 253.903 220.623 271.749C186.553 152.504 336.623 158.182 355.281 189.819C355.281 62.4617 499.673 97.343 499.673 126.546C515.897 62.4617 584.848 73.0072 598.638 73.0072C613.24 67.3289 623.785 54.3498 633.52 45.4267C638.387 58.4058 664.345 73.0072 671.646 73.0072C767.366 72.196 760.065 119.245 764.933 126.546C877.688 45.4267 920.681 165.483 911.758 187.385C1037.49 122.49 1066.7 250.658 1044.79 270.938C1172.15 240.924 1174.58 357.735 1156.74 379.638C1257.33 374.77 1247.5 462.5 1236.5 469.5C1139.52 586.82 1239.48 627.862 1239.48 632.729C1198.92 680.59 1252.46 696.813 1250.03 700.058C1172.96 830.66 1250.03 883.387 1250.03 889.066C1211.9 932.87 1250.03 962.884 1250.03 968.562C1222.12 1060.71 1225.96 1156.76 1231.37 1193.26L1280.04 1280.06V0H-13Z" fill="url(#paint1_linear_1_47)"/>
<defs>
<linearGradient id="paint0_linear_1_47" x1="633.504" y1="-95.6901" x2="632.765" y2="1268.7" gradientUnits="userSpaceOnUse">
<stop stop-color="#381309"/>
<stop offset="0.237749" stop-color="#D5592A"/>
<stop offset="0.930246" stop-color="#F5B32A"/>
</linearGradient>
<linearGradient id="paint1_linear_1_47" x1="634.331" y1="-149.259" x2="633.52" y2="1293.85" gradientUnits="userSpaceOnUse">
<stop stop-color="#381309"/>
<stop offset="0.182576" stop-color="#4C1B09"/>
<stop offset="0.618741" stop-color="#8E4614"/>
<stop offset="1" stop-color="#CF6C20"/>
</linearGradient>
</defs>
</svg>
