<svg width="1280" height="832" viewBox="0 0 1280 832" fill="none" xmlns="http://www.w3.org/2000/svg">
<g filter="url(#filter0_d_1_16)">
<path fill-rule="evenodd" clip-rule="evenodd" d="M0 770H1280V832H0V770ZM114.5 808.376C114.5 823.996 114.5 824.094 100.597 824.094C86.5 824.094 86.4999 823.996 86.5 808.376C86.5001 792.334 91.5907 787.94 97.0189 783.255L97.0189 783.255L97.019 783.255C98.1794 782.253 99.3552 781.239 100.5 780.094C101.812 781.486 103.157 782.666 104.468 783.816L104.469 783.816L104.469 783.816C109.75 788.448 114.5 792.615 114.5 808.376ZM141.097 824C155 824 155 823.902 155 808.282C155 792.521 150.25 788.355 144.969 783.723C143.657 782.572 142.312 781.393 141 780C139.855 781.145 138.679 782.16 137.519 783.161C132.091 787.846 127 792.24 127 808.282C127 823.902 127 824 141.097 824ZM195.5 808.188C195.5 823.808 195.5 823.906 181.597 823.906C167.5 823.906 167.5 823.808 167.5 808.188C167.5 792.146 172.591 787.752 178.019 783.068C179.179 782.066 180.355 781.051 181.5 779.906C182.812 781.299 184.157 782.478 185.469 783.629C190.75 788.261 195.5 792.428 195.5 808.188ZM222.097 823.812C236 823.812 236 823.714 236 808.095C236 792.334 231.25 788.167 225.969 783.535C224.657 782.384 223.312 781.205 222 779.812C220.855 780.957 219.679 781.972 218.519 782.974C213.091 787.659 208 792.052 208 808.095C208 823.714 208 823.812 222.097 823.812ZM276.5 808.001C276.5 823.621 276.5 823.719 262.597 823.719C248.5 823.719 248.5 823.621 248.5 808.001C248.5 791.959 253.591 787.565 259.019 782.88L259.019 782.88L259.019 782.88C260.18 781.878 261.355 780.863 262.5 779.719C263.812 781.111 265.157 782.291 266.469 783.441C271.75 788.073 276.5 792.24 276.5 808.001ZM303.097 823.625C317 823.625 317 823.527 317 807.907C317 792.146 312.25 787.98 306.969 783.348C305.657 782.197 304.312 781.018 303 779.625C301.855 780.77 300.68 781.784 299.519 782.786L299.519 782.786L299.519 782.786C294.091 787.471 289 791.865 289 807.907C289 823.527 289 823.625 303.097 823.625ZM357.5 807.813C357.5 823.433 357.5 823.531 343.597 823.531C329.5 823.531 329.5 823.433 329.5 807.813C329.5 791.771 334.591 787.377 340.019 782.693L340.019 782.692L340.019 782.692C341.18 781.691 342.355 780.676 343.5 779.531C344.812 780.924 346.157 782.103 347.469 783.254C352.75 787.886 357.5 792.053 357.5 807.813ZM384.097 823.438C398 823.438 398 823.339 398 807.72C398 791.959 393.25 787.792 387.969 783.16C386.657 782.009 385.312 780.83 384 779.438C382.855 780.582 381.68 781.597 380.519 782.598L380.519 782.598L380.519 782.599C375.091 787.284 370 791.677 370 807.72C370 823.339 370 823.438 384.097 823.438ZM438.5 807.626C438.5 823.246 438.5 823.344 424.597 823.344C410.5 823.344 410.5 823.246 410.5 807.626C410.5 791.584 415.591 787.19 421.019 782.505L421.019 782.505L421.019 782.505C422.18 781.503 423.355 780.488 424.5 779.344C425.812 780.736 427.157 781.916 428.469 783.066C433.75 787.698 438.5 791.865 438.5 807.626ZM465.097 823.25C479 823.25 479 823.152 479 807.532C479 791.771 474.25 787.605 468.969 782.973C467.657 781.822 466.312 780.643 465 779.25C463.855 780.395 462.68 781.409 461.519 782.411L461.519 782.411L461.519 782.411C456.091 787.096 451 791.49 451 807.532C451 823.152 451 823.25 465.097 823.25ZM519.5 807.438C519.5 823.058 519.5 823.156 505.597 823.156C491.5 823.156 491.5 823.058 491.5 807.438C491.5 791.396 496.591 787.002 502.019 782.318L502.019 782.317L502.019 782.317C503.18 781.316 504.355 780.301 505.5 779.156C506.812 780.549 508.157 781.728 509.469 782.879C514.75 787.511 519.5 791.678 519.5 807.438ZM546.097 823.062C560 823.062 560 822.964 560 807.345C560 791.584 555.25 787.417 549.969 782.785C548.657 781.634 547.312 780.455 546 779.062C544.855 780.207 543.679 781.222 542.519 782.224C537.091 786.909 532 791.302 532 807.345C532 822.964 532 823.062 546.097 823.062ZM600.5 807.251C600.5 822.871 600.5 822.969 586.597 822.969C572.5 822.969 572.5 822.871 572.5 807.251C572.5 791.209 577.591 786.815 583.019 782.13C584.179 781.128 585.355 780.114 586.5 778.969C587.812 780.361 589.157 781.541 590.469 782.691C595.75 787.323 600.5 791.49 600.5 807.251ZM627.097 822.875C641 822.875 641 822.777 641 807.157C641 791.396 636.25 787.23 630.969 782.598C629.657 781.447 628.312 780.268 627 778.875C625.855 780.02 624.679 781.035 623.519 782.036C618.091 786.721 613 791.115 613 807.157C613 822.777 613 822.875 627.097 822.875ZM681.5 807.063C681.5 822.683 681.5 822.781 667.597 822.781C653.5 822.781 653.5 822.683 653.5 807.063C653.5 791.021 658.591 786.627 664.019 781.943C665.179 780.941 666.355 779.926 667.5 778.781C668.812 780.174 670.157 781.353 671.469 782.504C676.75 787.136 681.5 791.303 681.5 807.063ZM708.097 822.688C722 822.688 722 822.589 722 806.97C722 791.209 717.25 787.042 711.969 782.41C710.657 781.259 709.312 780.08 708 778.688C706.855 779.832 705.679 780.847 704.519 781.849C699.091 786.534 694 790.927 694 806.97C694 822.589 694 822.688 708.097 822.688ZM762.5 806.876C762.5 822.496 762.5 822.594 748.597 822.594C734.5 822.594 734.5 822.496 734.5 806.876C734.5 790.834 739.591 786.44 745.019 781.755C746.179 780.753 747.355 779.739 748.5 778.594C749.812 779.986 751.157 781.166 752.469 782.316C757.75 786.948 762.5 791.115 762.5 806.876ZM789.097 822.5C803 822.5 803 822.402 803 806.782C803 791.021 798.25 786.855 792.969 782.223C791.657 781.072 790.312 779.893 789 778.5C787.855 779.645 786.679 780.66 785.519 781.661C780.091 786.346 775 790.74 775 806.782C775 822.402 775 822.5 789.097 822.5ZM843.5 806.688C843.5 822.308 843.5 822.406 829.597 822.406C815.5 822.406 815.5 822.308 815.5 806.688C815.5 790.646 820.591 786.252 826.019 781.568C827.179 780.566 828.355 779.551 829.5 778.406C830.812 779.799 832.157 780.978 833.469 782.129C838.75 786.761 843.5 790.928 843.5 806.688ZM870.097 822.312C884 822.312 884 822.214 884 806.595C884 790.834 879.25 786.667 873.969 782.035C872.657 780.884 871.312 779.705 870 778.312C868.855 779.457 867.679 780.472 866.519 781.474C861.091 786.159 856 790.552 856 806.595C856 822.214 856 822.312 870.097 822.312ZM924.5 806.501C924.5 822.121 924.5 822.219 910.597 822.219C896.5 822.219 896.5 822.121 896.5 806.501C896.5 790.459 901.591 786.065 907.019 781.38C908.179 780.378 909.355 779.364 910.5 778.219C911.812 779.611 913.157 780.791 914.469 781.941C919.75 786.573 924.5 790.74 924.5 806.501ZM951.097 822.125C965 822.125 965 822.027 965 806.407C965 790.646 960.25 786.48 954.969 781.848C953.657 780.697 952.312 779.518 951 778.125C949.855 779.27 948.679 780.285 947.519 781.286C942.091 785.971 937 790.365 937 806.407C937 822.027 937 822.125 951.097 822.125ZM1005.5 806.313C1005.5 821.933 1005.5 822.031 991.597 822.031C977.5 822.031 977.5 821.933 977.5 806.313C977.5 790.271 982.591 785.877 988.019 781.193C989.179 780.191 990.355 779.176 991.5 778.031C992.812 779.424 994.157 780.603 995.469 781.754C1000.75 786.386 1005.5 790.553 1005.5 806.313ZM1032.1 821.938C1046 821.938 1046 821.839 1046 806.22C1046 790.459 1041.25 786.292 1035.97 781.66L1035.97 781.659L1035.97 781.658L1035.97 781.658C1034.66 780.508 1033.31 779.329 1032 777.938C1030.86 779.082 1029.68 780.096 1028.52 781.097L1028.52 781.097L1028.52 781.097L1028.52 781.099C1023.09 785.784 1018 790.177 1018 806.22C1018 821.839 1018 821.938 1032.1 821.938ZM1086.5 806.126C1086.5 821.746 1086.5 821.844 1072.6 821.844C1058.5 821.844 1058.5 821.746 1058.5 806.126C1058.5 790.084 1063.59 785.69 1069.02 781.005L1069.02 781.004L1069.02 781.003L1069.02 781.003C1070.18 780.002 1071.36 778.988 1072.5 777.844C1073.81 779.236 1075.16 780.414 1076.47 781.564L1076.47 781.564L1076.47 781.565L1076.47 781.566C1081.75 786.198 1086.5 790.365 1086.5 806.126ZM1113.1 821.75C1127 821.75 1127 821.652 1127 806.032C1127 790.271 1122.25 786.105 1116.97 781.473L1116.97 781.471L1116.97 781.471C1115.66 780.321 1114.31 779.142 1113 777.75C1111.86 778.894 1110.68 779.908 1109.52 780.909L1109.52 780.91L1109.52 780.911C1104.09 785.596 1099 789.99 1099 806.032C1099 821.652 1099 821.75 1113.1 821.75ZM1167.5 805.938C1167.5 821.558 1167.5 821.656 1153.6 821.656C1139.5 821.656 1139.5 821.558 1139.5 805.938C1139.5 789.896 1144.59 785.502 1150.02 780.818L1150.02 780.816C1151.18 779.815 1152.36 778.801 1153.5 777.656C1154.81 779.048 1156.16 780.227 1157.47 781.377L1157.47 781.379C1162.75 786.011 1167.5 790.178 1167.5 805.938ZM1194.1 821.562C1208 821.562 1208 821.464 1208 805.845C1208 790.084 1203.25 785.917 1197.97 781.285C1196.66 780.134 1195.31 778.955 1194 777.562C1192.86 778.707 1191.68 779.722 1190.52 780.724C1185.09 785.409 1180 789.802 1180 805.845C1180 821.464 1180 821.562 1194.1 821.562Z" fill="url(#paint0_linear_1_16)"/>
</g>
<path d="M-1.6438 45.4277V1268.7C6.58075 1246.72 27.3278 1196.92 44.5198 1173.6C66.0098 1144.46 31.785 967.295 31.785 958.859C65.2138 910.541 31.785 894.435 31.785 886.766C106.602 796.266 39.7443 720.339 37.3565 708.068C72.3772 682.299 61.4995 656.427 51.6831 646.712C53.0097 646.201 56.2995 644.565 58.8464 642.111C136.051 595.327 75.5609 521.7 68.3975 514.798C-0.0519503 405.125 120.133 413.561 120.133 406.659C72.3772 298.519 210.072 285.481 227.582 302.354C194.154 189.613 341.4 194.982 359.706 224.893C359.706 104.482 501.38 137.461 501.38 165.071C517.299 104.482 584.952 114.453 598.483 114.453C612.81 109.084 623.157 96.813 632.708 88.3766C637.483 100.648 662.953 114.453 670.116 114.453C764.035 113.686 756.872 158.169 761.648 165.071C872.281 88.3766 914.465 201.884 905.71 222.592C1029.08 161.236 1057.73 282.414 1036.24 301.587C1161.2 273.21 1163.59 383.65 1146.08 404.358C1244.77 399.756 1227.26 481.052 1227.26 489.489C1107.87 603.763 1227.26 639.043 1227.26 643.645C1187.47 688.894 1240 704.233 1237.61 707.301C1162 830.779 1237.61 880.63 1237.61 885.999C1200.2 927.414 1237.61 955.791 1237.61 961.16C1210.23 1048.28 1214 1139.09 1219.3 1173.6L1267.06 1255.67V45.4277H-1.6438Z" fill="url(#paint1_linear_1_16)"/>
<path d="M-13 0V1293.85C-4.61769 1270.6 16.5274 1217.92 34.0491 1193.26C55.9513 1162.44 21.07 975.052 21.07 966.129C55.1401 915.024 21.07 897.989 21.07 889.877C97.322 794.156 29.182 713.848 26.7484 700.869C62.4408 673.613 51.3545 646.249 41.3498 635.974C42.7018 635.433 46.0547 633.703 48.6505 631.107C127.336 581.624 65.6856 503.75 58.3848 496.449C-11.3776 380.449 111.112 389.372 111.112 382.071C62.4408 267.693 202.777 253.903 220.623 271.749C186.553 152.504 336.623 158.182 355.281 189.819C355.281 62.4617 499.673 97.343 499.673 126.546C515.897 62.4617 584.848 73.0072 598.638 73.0072C613.24 67.3289 623.785 54.3498 633.52 45.4267C638.387 58.4058 664.345 73.0072 671.646 73.0072C767.366 72.196 760.065 119.245 764.933 126.546C877.688 45.4267 920.681 165.483 911.758 187.385C1037.49 122.49 1066.7 250.658 1044.79 270.938C1172.15 240.924 1174.58 357.735 1156.74 379.638C1257.33 374.77 1247.5 462.5 1236.5 469.5C1139.52 586.82 1239.48 627.862 1239.48 632.729C1198.92 680.59 1252.46 696.813 1250.03 700.058C1172.96 830.66 1250.03 883.387 1250.03 889.066C1211.9 932.87 1250.03 962.884 1250.03 968.562C1222.12 1060.71 1225.96 1156.76 1231.37 1193.26L1280.04 1280.06V0H-13Z" fill="url(#paint2_linear_1_16)"/>
<g filter="url(#filter1_d_1_16)">
<path d="M1212 143.49C1212 185.735 1212 186 1174.26 186C1136 186 1136 185.735 1136 143.49C1136 90.8281 1156.36 84.5795 1174 67C1191.91 85.9318 1212 90.2772 1212 143.49Z" fill="url(#paint3_linear_1_16)"/>
<path d="M144 143.49C144 185.735 144 186 106.263 186C68 186 67.9998 185.735 68 143.49C68.0003 90.8281 88.3571 84.5795 106 67C123.905 85.9318 144 90.2772 144 143.49Z" fill="url(#paint4_linear_1_16)"/>
</g>
<defs>
<filter id="filter0_d_1_16" x="-4" y="759" width="1288" height="73" filterUnits="userSpaceOnUse" color-interpolation-filters="sRGB">
<feFlood flood-opacity="0" result="BackgroundImageFix"/>
<feColorMatrix in="SourceAlpha" type="matrix" values="0 0 0 0 0 0 0 0 0 0 0 0 0 0 0 0 0 0 127 0" result="hardAlpha"/>
<feOffset dy="-7"/>
<feGaussianBlur stdDeviation="2"/>
<feComposite in2="hardAlpha" operator="out"/>
<feColorMatrix type="matrix" values="0 0 0 0 0.937255 0 0 0 0 0.701961 0 0 0 0 0.164706 0 0 0 1 0"/>
<feBlend mode="normal" in2="BackgroundImageFix" result="effect1_dropShadow_1_16"/>
<feBlend mode="normal" in="SourceGraphic" in2="effect1_dropShadow_1_16" result="shape"/>
</filter>
<filter id="filter1_d_1_16" x="68" y="67" width="1144" height="119" filterUnits="userSpaceOnUse" color-interpolation-filters="sRGB">
<feFlood flood-opacity="0" result="BackgroundImageFix"/>
<feColorMatrix in="SourceAlpha" type="matrix" values="0 0 0 0 0 0 0 0 0 0 0 0 0 0 0 0 0 0 127 0" result="hardAlpha"/>
<feOffset/>
<feColorMatrix type="matrix" values="0 0 0 0 0 0 0 0 0 0 0 0 0 0 0 0 0 0 1 0"/>
<feBlend mode="normal" in2="BackgroundImageFix" result="effect1_dropShadow_1_16"/>
<feBlend mode="normal" in="SourceGraphic" in2="effect1_dropShadow_1_16" result="shape"/>
</filter>
<linearGradient id="paint0_linear_1_16" x1="640" y1="770" x2="640" y2="832" gradientUnits="userSpaceOnUse">
<stop stop-color="#944A15"/>
<stop offset="1" stop-color="#D67121"/>
</linearGradient>
<linearGradient id="paint1_linear_1_16" x1="633.504" y1="-95.6901" x2="632.765" y2="1268.7" gradientUnits="userSpaceOnUse">
<stop stop-color="#381309"/>
<stop offset="0.237749" stop-color="#D5592A"/>
<stop offset="0.930246" stop-color="#F5B32A"/>
</linearGradient>
<linearGradient id="paint2_linear_1_16" x1="634.331" y1="-149.259" x2="633.52" y2="1293.85" gradientUnits="userSpaceOnUse">
<stop stop-color="#381309"/>
<stop offset="0.182576" stop-color="#4C1B09"/>
<stop offset="0.618741" stop-color="#8E4614"/>
<stop offset="1" stop-color="#CF6C20"/>
</linearGradient>
<linearGradient id="paint3_linear_1_16" x1="1174" y1="67" x2="1174" y2="186" gradientUnits="userSpaceOnUse">
<stop stop-color="#FFF3E0"/>
<stop offset="1" stop-color="#FFE8C5"/>
</linearGradient>
<linearGradient id="paint4_linear_1_16" x1="106" y1="67" x2="106" y2="186" gradientUnits="userSpaceOnUse">
<stop stop-color="#FFF3E0"/>
<stop offset="1" stop-color="#FFE8C5"/>
</linearGradient>
</defs>
</svg>
