<svg width="1280" height="73" viewBox="0 0 1280 73" fill="none" xmlns="http://www.w3.org/2000/svg">
<g filter="url(#filter0_d_1_17)">
<path fill-rule="evenodd" clip-rule="evenodd" d="M0 11H1280V73H0V11ZM114.5 49.3758C114.5 64.9956 114.5 65.0938 100.597 65.0938C86.5 65.0938 86.4999 64.9956 86.5 49.3758C86.5001 33.3337 91.5907 28.94 97.0189 24.255L97.0189 24.255L97.019 24.2549C98.1794 23.2534 99.3552 22.2385 100.5 21.0938C101.812 22.4864 103.157 23.6656 104.468 24.8161L104.469 24.8162L104.469 24.8163C109.75 29.4484 114.5 33.6151 114.5 49.3758ZM141.097 65C155 65 155 64.9018 155 49.2821C155 33.5214 150.25 29.3546 144.969 24.7225C143.657 23.572 142.312 22.3927 141 21C139.855 22.1448 138.679 23.1597 137.519 24.1613C132.091 28.8462 127 33.2399 127 49.2821C127 64.9018 127 65 141.097 65ZM195.5 49.1883C195.5 64.8081 195.5 64.9062 181.597 64.9062C167.5 64.9062 167.5 64.8081 167.5 49.1883C167.5 33.1462 172.591 28.7525 178.019 24.0675C179.179 23.066 180.355 22.0511 181.5 20.9062C182.812 22.299 184.157 23.4782 185.469 24.6288C190.75 29.2609 195.5 33.4276 195.5 49.1883ZM222.097 64.8125C236 64.8125 236 64.7143 236 49.0946C236 33.3339 231.25 29.1671 225.969 24.535C224.657 23.3845 223.312 22.2052 222 20.8125C220.855 21.9573 219.679 22.9722 218.519 23.9738C213.091 28.6587 208 33.0524 208 49.0946C208 64.7143 208 64.8125 222.097 64.8125ZM276.5 49.0008C276.5 64.6206 276.5 64.7188 262.597 64.7188C248.5 64.7188 248.5 64.6206 248.5 49.0008C248.5 32.9587 253.591 28.565 259.019 23.88L259.019 23.8797L259.019 23.8795C260.18 22.8781 261.355 21.8634 262.5 20.7188C263.812 22.1115 265.157 23.2907 266.469 24.4413C271.75 29.0734 276.5 33.2401 276.5 49.0008ZM303.097 64.625C317 64.625 317 64.5268 317 48.9071C317 33.1464 312.25 28.9796 306.969 24.3475C305.657 23.197 304.312 22.0177 303 20.625C301.855 21.7697 300.68 22.7844 299.519 23.7858L299.519 23.786L299.519 23.7863C294.091 28.4712 289 32.8649 289 48.9071C289 64.5268 289 64.625 303.097 64.625ZM357.5 48.8133C357.5 64.4331 357.5 64.5312 343.597 64.5312C329.5 64.5312 329.5 64.4331 329.5 48.8133C329.5 32.7712 334.591 28.3775 340.019 23.6925L340.019 23.6922L340.019 23.692C341.18 22.6906 342.355 21.6759 343.5 20.5312C344.812 21.924 346.157 23.1032 347.469 24.2538C352.75 28.8859 357.5 33.0526 357.5 48.8133ZM384.097 64.4375C398 64.4375 398 64.3393 398 48.7196C398 32.9589 393.25 28.7921 387.969 24.16C386.657 23.0095 385.312 21.8302 384 20.4375C382.855 21.5822 381.68 22.5969 380.519 23.5983L380.519 23.5985L380.519 23.5988C375.091 28.2837 370 32.6774 370 48.7196C370 64.3393 370 64.4375 384.097 64.4375ZM438.5 48.6258C438.5 64.2456 438.5 64.3438 424.597 64.3438C410.5 64.3438 410.5 64.2456 410.5 48.6258C410.5 32.5837 415.591 28.19 421.019 23.505L421.019 23.5047L421.019 23.5045C422.18 22.5031 423.355 21.4884 424.5 20.3438C425.812 21.7365 427.157 22.9157 428.469 24.0663C433.75 28.6984 438.5 32.8651 438.5 48.6258ZM465.097 64.25C479 64.25 479 64.1518 479 48.5321C479 32.7714 474.25 28.6046 468.969 23.9725C467.657 22.822 466.312 21.6427 465 20.25C463.855 21.3947 462.68 22.4094 461.519 23.4108L461.519 23.411L461.519 23.4113C456.091 28.0962 451 32.4899 451 48.5321C451 64.1518 451 64.25 465.097 64.25ZM519.5 48.4383C519.5 64.0581 519.5 64.1562 505.597 64.1562C491.5 64.1562 491.5 64.0581 491.5 48.4383C491.5 32.3962 496.591 28.0025 502.019 23.3175L502.019 23.3172L502.019 23.317C503.18 22.3156 504.355 21.3009 505.5 20.1562C506.812 21.549 508.157 22.7282 509.469 23.8788C514.75 28.5109 519.5 32.6776 519.5 48.4383ZM546.097 64.0625C560 64.0625 560 63.9643 560 48.3446C560 32.5839 555.25 28.4171 549.969 23.785C548.657 22.6345 547.312 21.4552 546 20.0625C544.855 21.2073 543.679 22.2222 542.519 23.2238C537.091 27.9087 532 32.3024 532 48.3446C532 63.9643 532 64.0625 546.097 64.0625ZM600.5 48.2508C600.5 63.8706 600.5 63.9688 586.597 63.9688C572.5 63.9688 572.5 63.8706 572.5 48.2508C572.5 32.2087 577.591 27.815 583.019 23.13C584.179 22.1285 585.355 21.1136 586.5 19.9688C587.812 21.3615 589.157 22.5407 590.469 23.6913C595.75 28.3234 600.5 32.4901 600.5 48.2508ZM627.097 63.875C641 63.875 641 63.7768 641 48.1571C641 32.3964 636.25 28.2296 630.969 23.5975C629.657 22.447 628.312 21.2677 627 19.875C625.855 21.0198 624.679 22.0347 623.519 23.0363C618.091 27.7212 613 32.1149 613 48.1571C613 63.7768 613 63.875 627.097 63.875ZM681.5 48.0633C681.5 63.6831 681.5 63.7812 667.597 63.7812C653.5 63.7812 653.5 63.6831 653.5 48.0633C653.5 32.0212 658.591 27.6275 664.019 22.9425C665.179 21.941 666.355 20.9261 667.5 19.7812C668.812 21.174 670.157 22.3532 671.469 23.5038C676.75 28.1359 681.5 32.3026 681.5 48.0633ZM708.097 63.6875C722 63.6875 722 63.5893 722 47.9696C722 32.2089 717.25 28.0421 711.969 23.41C710.657 22.2595 709.312 21.0802 708 19.6875C706.855 20.8323 705.679 21.8472 704.519 22.8488C699.091 27.5337 694 31.9274 694 47.9696C694 63.5893 694 63.6875 708.097 63.6875ZM762.5 47.8758C762.5 63.4956 762.5 63.5938 748.597 63.5938C734.5 63.5938 734.5 63.4956 734.5 47.8758C734.5 31.8337 739.591 27.44 745.019 22.755C746.179 21.7535 747.355 20.7386 748.5 19.5938C749.812 20.9865 751.157 22.1657 752.469 23.3163C757.75 27.9484 762.5 32.1151 762.5 47.8758ZM789.097 63.5C803 63.5 803 63.4018 803 47.7821C803 32.0214 798.25 27.8546 792.969 23.2225C791.657 22.072 790.312 20.8927 789 19.5C787.855 20.6448 786.679 21.6597 785.519 22.6613C780.091 27.3462 775 31.7399 775 47.7821C775 63.4018 775 63.5 789.097 63.5ZM843.5 47.6883C843.5 63.3081 843.5 63.4062 829.597 63.4062C815.5 63.4062 815.5 63.3081 815.5 47.6883C815.5 31.6462 820.591 27.2525 826.019 22.5675C827.179 21.566 828.355 20.5511 829.5 19.4062C830.812 20.799 832.157 21.9782 833.469 23.1288C838.75 27.7609 843.5 31.9276 843.5 47.6883ZM870.097 63.3125C884 63.3125 884 63.2143 884 47.5946C884 31.8339 879.25 27.6671 873.969 23.035C872.657 21.8845 871.312 20.7052 870 19.3125C868.855 20.4573 867.679 21.4722 866.519 22.4738C861.091 27.1587 856 31.5524 856 47.5946C856 63.2143 856 63.3125 870.097 63.3125ZM924.5 47.5008C924.5 63.1206 924.5 63.2188 910.597 63.2188C896.5 63.2188 896.5 63.1206 896.5 47.5008C896.5 31.4587 901.591 27.065 907.019 22.38C908.179 21.3785 909.355 20.3636 910.5 19.2188C911.812 20.6115 913.157 21.7907 914.469 22.9413C919.75 27.5734 924.5 31.7401 924.5 47.5008ZM951.097 63.125C965 63.125 965 63.0268 965 47.4071C965 31.6464 960.25 27.4796 954.969 22.8475C953.657 21.697 952.312 20.5177 951 19.125C949.855 20.2698 948.679 21.2847 947.519 22.2863C942.091 26.9712 937 31.3649 937 47.4071C937 63.0268 937 63.125 951.097 63.125ZM1005.5 47.3133C1005.5 62.9331 1005.5 63.0312 991.597 63.0312C977.5 63.0312 977.5 62.9331 977.5 47.3133C977.5 31.2712 982.591 26.8775 988.019 22.1925C989.179 21.191 990.355 20.1761 991.5 19.0312C992.812 20.424 994.157 21.6032 995.469 22.7538C1000.75 27.3859 1005.5 31.5526 1005.5 47.3133ZM1032.1 62.9375C1046 62.9375 1046 62.8393 1046 47.2196C1046 31.4589 1041.25 27.2921 1035.97 22.66L1035.97 22.6587L1035.97 22.658L1035.97 22.6577C1034.66 21.5079 1033.31 20.3293 1032 18.9375C1030.86 20.0815 1029.68 21.0957 1028.52 22.0966L1028.52 22.0968L1028.52 22.0974L1028.52 22.0988C1023.09 26.7837 1018 31.1774 1018 47.2196C1018 62.8393 1018 62.9375 1032.1 62.9375ZM1086.5 47.1258C1086.5 62.7456 1086.5 62.8438 1072.6 62.8438C1058.5 62.8438 1058.5 62.7456 1058.5 47.1258C1058.5 31.0837 1063.59 26.69 1069.02 22.005L1069.02 22.0037L1069.02 22.0031L1069.02 22.0028C1070.18 21.002 1071.36 19.9878 1072.5 18.8438C1073.81 20.2356 1075.16 21.4142 1076.47 22.564L1076.47 22.5643L1076.47 22.5649L1076.47 22.5663C1081.75 27.1984 1086.5 31.3651 1086.5 47.1258ZM1113.1 62.75C1127 62.75 1127 62.6518 1127 47.0321C1127 31.2714 1122.25 27.1046 1116.97 22.4725L1116.97 22.4712L1116.97 22.4705C1115.66 21.3206 1114.31 20.1419 1113 18.75C1111.86 19.8941 1110.68 20.9084 1109.52 21.9093L1109.52 21.9099L1109.52 21.9113C1104.09 26.5962 1099 30.9899 1099 47.0321C1099 62.6518 1099 62.75 1113.1 62.75ZM1167.5 46.9383C1167.5 62.5581 1167.5 62.6562 1153.6 62.6562C1139.5 62.6562 1139.5 62.5581 1139.5 46.9383C1139.5 30.8962 1144.59 26.5025 1150.02 21.8175L1150.02 21.8162C1151.18 20.8151 1152.36 19.8006 1153.5 18.6562C1154.81 20.0485 1156.16 21.2273 1157.47 22.3774L1157.47 22.3788C1162.75 27.0109 1167.5 31.1776 1167.5 46.9383ZM1194.1 62.5625C1208 62.5625 1208 62.4643 1208 46.8446C1208 31.0839 1203.25 26.9171 1197.97 22.285C1196.66 21.1345 1195.31 19.9552 1194 18.5625C1192.86 19.7073 1191.68 20.7222 1190.52 21.7238C1185.09 26.4087 1180 30.8024 1180 46.8446C1180 62.4643 1180 62.5625 1194.1 62.5625Z" fill="url(#paint0_linear_1_17)"/>
</g>
<defs>
<filter id="filter0_d_1_17" x="-4" y="0" width="1288" height="73" filterUnits="userSpaceOnUse" color-interpolation-filters="sRGB">
<feFlood flood-opacity="0" result="BackgroundImageFix"/>
<feColorMatrix in="SourceAlpha" type="matrix" values="0 0 0 0 0 0 0 0 0 0 0 0 0 0 0 0 0 0 127 0" result="hardAlpha"/>
<feOffset dy="-7"/>
<feGaussianBlur stdDeviation="2"/>
<feComposite in2="hardAlpha" operator="out"/>
<feColorMatrix type="matrix" values="0 0 0 0 0.937255 0 0 0 0 0.701961 0 0 0 0 0.164706 0 0 0 1 0"/>
<feBlend mode="normal" in2="BackgroundImageFix" result="effect1_dropShadow_1_17"/>
<feBlend mode="normal" in="SourceGraphic" in2="effect1_dropShadow_1_17" result="shape"/>
</filter>
<linearGradient id="paint0_linear_1_17" x1="640" y1="11" x2="640" y2="73" gradientUnits="userSpaceOnUse">
<stop stop-color="#944A15"/>
<stop offset="1" stop-color="#D67121"/>
</linearGradient>
</defs>
</svg>
