<svg width="84" height="26" viewBox="0 0 84 26" fill="none" xmlns="http://www.w3.org/2000/svg">
<g id="Group 226">
<path id="Vector 3" d="M31.7935 17.2166C28.4486 20.7446 22.1359 22.5187 18.9189 23.0153C18.8476 23.0263 18.7976 23.0871 18.7976 23.1592C18.7976 23.2396 18.8628 23.3048 18.9432 23.3048H19.5646L22.3769 23.5759H24.4222H24.4744C25.4569 23.5759 26.434 23.4311 27.3743 23.1462L27.7459 23.0336L28.214 22.9344C28.7468 22.8215 29.2461 22.5862 29.6724 22.2472C29.9209 22.0496 30.195 21.8866 30.4873 21.7626L30.6502 21.6936C31.0976 21.5038 31.5137 21.2474 31.8843 20.9331L32.6035 20.323C32.9438 19.9621 33.3136 19.6302 33.709 19.3308L34.9045 18.4255L35.73 17.8784C36.536 17.3444 37.4355 16.9671 38.3813 16.7666L38.5902 16.7223C39.1976 16.5934 39.8209 16.5557 40.4395 16.6104C41.8233 16.7327 43.1272 17.3119 44.1456 18.2567L44.6197 18.6966L47.4321 21.6784L49.1606 23.5111C49.5416 23.915 49.9478 24.3026 50.4424 24.5549C50.7278 24.7004 51.0576 24.8375 51.406 24.9315C52.4772 25.2204 53.4865 24.5615 54.2589 23.765C55.5631 22.4202 57.5397 20.2644 59.0159 18.6546L59.0808 18.5838C60.1516 17.4159 61.5645 16.4049 63.145 16.5164C64.9358 16.6427 66.5058 17.7947 68.0066 18.7799C70.0176 20.1 72.9166 21.6869 75.1102 22.8264C76.0682 23.3241 77.1465 23.5328 78.223 23.4513L83.326 23.0648C83.5575 23.0473 83.7365 22.8543 83.7365 22.622C83.7365 22.394 83.5639 22.2031 83.337 22.1802L79.1705 21.7595C78.6385 21.7057 78.119 21.5681 77.629 21.354C76.5235 20.8708 75.0226 20.2251 74.5326 20.0518C73.7656 19.7806 69.4193 15.4436 66.0956 13.275C64.2921 12.0982 62.0729 12.1021 60.3796 12.4238C59.0554 12.6754 57.9489 13.5094 57.0241 14.4899L52.4594 19.3297C52.1862 19.6194 52.2003 19.8079 51.8233 19.9359C51.3844 20.0851 50.5857 19.8463 50.2855 19.4931C48.8514 17.8053 46.3347 14.9775 44.8754 13.8171C43.0632 12.376 39.6452 11.5733 34.9772 14.2375C33.7088 14.9615 32.7983 16.1568 31.7935 17.2166Z" fill="#2E0D02"/>
<path id="Vector 4" d="M8.28893 1.98602C6.74956 4.53051 2.12157 5.74492 0 6.03407V6.17872H0.44405L2.07223 6.32329H3.25637H4.14446L5.18058 6.03407L5.92066 5.88957L6.51273 5.45585L7.25281 5.16671L7.9929 4.58842L8.28893 4.29921L9.32505 3.5764L10.5092 2.85354L11.9893 2.56439L13.7655 2.70897L14.9497 3.72098L16.5779 5.31128L17.91 6.61244C18.2554 6.85339 19.1237 7.27747 19.8342 7.04616C20.4263 6.61244 23.5346 3.43183 24.2747 2.70897C25.6069 2.41982 25.9029 2.56439 27.2351 2.85354C27.9455 3.66315 31.6756 5.50404 33.4518 6.32329L37.5962 6.03415V5.60043L34.4879 5.31128C33.8958 5.07033 32.6229 4.55949 32.2676 4.44378C31.8236 4.29915 29.3073 1.98604 27.3831 0.829458C25.8437 -0.0958094 23.7813 0.347548 22.9426 0.684885L19.2422 4.29921C19.2422 4.3474 19.0941 4.44378 18.5021 4.44378C17.762 3.62453 16.045 1.81254 15.0977 1.11859C13.9136 0.251148 11.5453 -0.182571 8.28893 1.98602Z" fill="#2E0D02"/>
</g>
</svg>
