<svg width="1280" height="826" viewBox="0 0 1280 826" fill="none" xmlns="http://www.w3.org/2000/svg">
<mask id="mask0_792_355" style="mask-type:luminance" maskUnits="userSpaceOnUse" x="0" y="-27" width="1280" height="853">
<path d="M1279.9 -27H0V825.349H1279.9V-27Z" fill="white"/>
</mask>
<g mask="url(#mask0_792_355)">
<path d="M1279.9 181.504H0V825.351H1279.9V181.504Z" fill="url(#paint0_linear_792_355)"/>
<path opacity="0.45" d="M1048.87 -26.5211C1003.44 9.66968 975.247 64.0666 962.312 120.475C960.725 127.413 959.24 134.624 955.093 140.437C951.509 145.432 946.236 148.961 941.321 152.643C919.914 168.837 903.382 190.606 893.539 215.563C889.187 226.678 885.927 238.798 877.361 247.168C872.241 252.129 865.705 255.368 860.654 260.345C848.708 272.193 847.821 290.791 842.326 306.679C833.878 331.09 813.878 349.74 792.922 365.082C784.833 370.98 776.351 376.674 770.208 384.567C764.337 392.119 760.941 401.239 757.631 410.137C747.858 436.708 738.068 463.278 728.261 489.849C716.64 521.42 704.899 553.451 702.1 586.932C701.708 591.619 701.639 596.785 704.592 600.467C707.544 604.149 713.278 605.325 718.244 605.82C764.184 610.354 810.192 601.251 856.08 596.273C921.867 589.131 988.234 590.443 1054.38 591.756L1393.23 598.575C1406.4 598.847 1420.11 599.001 1432.1 593.58C1448.74 586.079 1459 569.288 1466.47 552.667C1480.96 520.482 1488.83 485.724 1493.9 450.845C1514.31 308.162 1489.74 162.668 1423.59 34.5753C1413.98 16.0793 1403.11 -2.39958 1387.15 -15.7985C1339.1 -55.9782 1270.48 -37.6868 1214.74 -55.8078C1156.51 -74.7299 1097.67 -65.4223 1048.87 -26.5211Z" fill="url(#paint1_linear_792_355)"/>
<path opacity="0.45" d="M1186.14 44.4639C1170.78 47.8733 1155.42 53.1238 1143.22 63.0451C1121.41 80.7911 1113.27 109.805 1106.29 136.927C1095.89 135.729 1085.36 137.602 1076.01 142.312C1066.65 147.023 1058.89 154.366 1053.66 163.435C1041.05 160.025 1026.36 168.157 1022.79 180.635C1004.7 171.771 981.834 177.413 966.612 190.608C951.39 203.802 942.994 223.184 938.591 242.737C937.038 249.658 935.741 257.057 931.014 262.375C927.055 266.842 921.253 269.194 915.894 271.871C902.827 278.573 891.518 288.245 882.875 300.108C874.232 311.972 868.497 325.697 866.132 340.178C865.278 345.735 864.766 351.77 861.012 356.015C856.592 361.129 849.066 362.032 843.52 365.97C832.206 374.05 832.138 392.666 820.021 399.484C816.608 401.359 812.615 402.195 810.106 405.059C807.598 407.923 807.325 411.52 806.386 414.963C803.212 426.589 793.451 435.095 784.201 442.852C757.767 465.013 731.299 487.174 704.097 508.244C679.534 527.303 654.351 545.526 628.549 562.914C705.581 577.352 784.679 561.857 861.951 548.714C996.613 525.819 1134.28 509.983 1269.37 529.74C1273.77 530.388 1278.51 531.019 1282.51 529.075C1286.93 526.91 1289.33 522.154 1291.33 517.688C1335.1 421.073 1352.85 314.712 1342.82 209.138C1340.21 182.101 1335.75 155.269 1332.94 128.233C1331.23 111.902 1336.81 79.683 1326.5 65.909C1315.1 50.669 1278.94 45.2481 1261.65 42.4865C1236.58 38.4646 1210.97 39.1352 1186.14 44.4639Z" fill="url(#paint2_linear_792_355)"/>
<path opacity="0.45" d="M1276.06 131.281C1211.96 126.167 1152.64 179.473 1145.56 241.678C1141.57 241.117 1137.51 241.983 1134.1 244.123C1130.69 246.263 1128.15 249.539 1126.92 253.372C1113.82 250.218 1102.3 240.16 1088.85 240.962C1079.53 241.541 1071.24 247.457 1065.63 254.855C1060.01 262.253 1056.7 271.067 1053.44 279.727C1048.99 274.766 1038.85 279.147 1039.46 285.778C1034.3 281.679 1028.04 279.173 1021.47 278.568C1014.9 277.962 1008.3 279.283 1002.47 282.369C996.765 285.642 992.153 290.517 989.204 296.388C986.254 302.259 985.098 308.867 985.879 315.389C964.155 314.656 944.035 334.686 944.837 356.302C939.154 350.966 929.051 353.489 924.359 359.711C919.666 365.933 919.239 374.354 920.382 382.042C921.782 392.117 923.352 408.414 935.588 409.318C1053.24 417.841 1171.24 426.365 1289.06 420.807C1298.91 420.347 1309.54 419.495 1317.03 413.238C1325.32 406.42 1327.75 394.947 1329.42 384.361C1335.27 347.403 1338.06 310.036 1340.84 272.737C1344.83 219.312 1347.19 136.958 1276.06 131.281Z" fill="url(#paint3_linear_792_355)"/>
<path opacity="0.45" d="M554.622 447.332L555.731 448.031C578.991 462.913 592.575 488.535 605.22 513.014C607.115 516.696 609.06 520.771 608.139 524.811C606.671 531.169 599.196 533.829 592.78 535.414C503.614 557.814 414.379 580.231 324.07 597.55C239.341 613.796 151.864 625.524 67.0324 609.739C19.0789 600.823 -29.1306 581.816 -60.9573 545.063C-86.7942 515.196 -99.542 476.329 -107.631 437.769C-120.703 375.548 -123.28 311.621 -125.805 248.172C-130.038 143.18 -135.72 -6.71394 -17.4408 -50.9679C16.1773 -63.6409 52.6298 -66.866 87.9544 -60.2926C147.342 -48.8541 200.244 -8.0095 226.064 46.3363C238.436 72.4011 244.75 100.887 249.563 129.304C250.467 134.588 251.389 140.078 254.546 144.425C259.665 151.397 268.932 153.511 277.055 156.579C295.9 163.779 311.119 178.148 319.377 196.537C324.036 207.106 327.039 219.721 337.074 225.517C343.029 228.926 350.316 229.199 356.938 231.194C392.194 241.78 395.727 294.625 428.27 311.775C435.472 315.576 443.732 317.349 450.455 321.918C466.701 332.913 469.227 356.199 483.204 369.973C490.388 377.065 500.423 381.446 505.627 390.054C510.457 398.049 510.15 408.158 514.041 416.648C522.403 434.871 545.424 440.514 560.68 451.389C580.834 465.777 594.077 486.353 603.207 508.991C614.589 537.204 619.197 572.253 599.691 595.658C587.49 610.301 568.359 617.188 549.809 621.808C495.007 635.37 437.648 634.754 383.15 620.018C354.139 612.125 325.128 600.176 295.298 603.602C288.045 604.42 278.813 610.284 282.396 616.592" fill="url(#paint4_linear_792_355)"/>
<path opacity="0.45" d="M86.6575 171.822C128.229 182.852 162.991 211.422 177.735 246.692C178.498 249.277 180.041 251.564 182.155 253.238C185.124 255.182 189.22 254.943 192.94 254.756C227.241 253.528 260.672 275.894 267.806 304.84C266.713 300.407 298.318 308.931 300.998 310.602C310.744 317.014 318.043 326.521 321.715 337.587C324.957 346.758 322.278 359.185 330.794 365.169C341.033 372.414 360.948 367.215 373.747 376.829C381.575 382.837 387.727 390.753 391.612 399.819C395.496 408.885 396.984 418.796 395.932 428.601C421.717 421.322 451.445 443.108 452.008 469.735C465.882 466.326 477.999 478.958 486.634 490.191L497.231 504.051C512.692 524.268 528.563 545.321 534.246 570.091C530.73 554.748 442.912 579.79 432.4 586.592C420.455 594.297 409.925 603.639 396.887 609.81C380.88 617.396 362.33 619.646 344.821 624.095C319.223 630.607 295.622 641.91 270.143 648.609C228.112 659.655 183.111 657.695 139.304 654.933C66.6399 650.348 -11.3143 641.841 -65.2407 599.582C-91.1628 579.313 -109.337 552.6 -123.877 525.121C-162.683 451.614 -177.889 368.97 -167.393 288.73C-165.073 271.001 -161.199 252.71 -149.117 238.237C-126.198 210.774 -76.316 198.586 -41.2127 186.875C1.058 172.777 40.9566 159.736 86.6575 171.822Z" fill="url(#paint5_linear_792_355)"/>
<path opacity="0.45" d="M76.7937 300.542C87.9714 297.132 101.146 305.52 102.801 316.992C119.457 303.713 144.935 305.417 162.018 317.896C179.1 330.374 188.076 351.768 189.1 372.821C197.292 371.713 205.312 375.174 212.838 378.549L226.183 384.549C236.422 389.118 247.515 394.778 251.235 405.193C261.918 401.971 272.874 398.715 284.017 399.312C295.161 399.909 306.748 405.125 311.834 414.995C315.247 421.661 315.912 430.338 322.073 434.668C325.486 437.088 329.991 437.497 334.189 438.077C361.886 442.373 386.068 461.159 400.556 485.007C415.045 508.856 420.557 537.256 420.335 565.128C420.164 588.431 414.533 614.309 395.147 627.418C384.174 634.85 370.47 636.947 357.228 637.97C298.796 642.487 240.364 629.907 181.745 629.787C106.009 629.634 31.5706 650.244 -44.0968 652.835C-65.7527 653.568 -89.61 651.999 -105.361 637.22C-120.43 623.054 -123.809 600.79 -125.601 580.266C-133.178 493.957 -132.427 401.971 -119.474 316.14C-110.242 254.89 -71.4696 232.882 -10.9731 238.491C8.42741 240.321 26.9632 247.393 42.646 258.947C46.5198 261.862 80.2067 299.519 76.7937 300.542Z" fill="url(#paint6_linear_792_355)"/>
<path opacity="0.18" d="M646.058 693.818C748.959 693.818 832.376 610.978 832.376 508.79C832.376 406.602 748.959 323.762 646.058 323.762C543.157 323.762 459.739 406.602 459.739 508.79C459.739 610.978 543.157 693.818 646.058 693.818Z" fill="#F6F6F6"/>
<path opacity="0.18" d="M646.058 674.91C738.45 674.91 813.349 600.534 813.349 508.787C813.349 417.04 738.45 342.664 646.058 342.664C553.665 342.664 478.767 417.04 478.767 508.787C478.767 600.534 553.665 674.91 646.058 674.91Z" fill="#F6F6F6"/>
<path d="M646.058 654.112C726.886 654.112 792.41 589.047 792.41 508.786C792.41 428.525 726.886 363.461 646.058 363.461C565.23 363.461 499.706 428.525 499.706 508.786C499.706 589.047 565.23 654.112 646.058 654.112Z" fill="#F6F6F6"/>
<path d="M956.219 276.88L964.001 269.396H971.766L980.964 259.424H988.729L993.678 268.152H1007.11L1024.07 254.514L1038.2 246.195H1045.27L1059.4 257.003L1066.46 276.948C1066.46 276.948 1075.64 284.432 1077.78 283.596C1079.91 282.761 1101.09 300.234 1101.09 300.234H1114.52L1122.28 305.212L1130.06 298.564L1162.33 296.859L1178.36 290.194L1203.79 282.437L1219.81 284.653L1234.88 281.329L1246.19 268.033L1262.2 263.6L1268.8 265.816L1282 264.708L1296.13 273.607C1296.13 273.607 1303.82 287.977 1306.09 287.977C1308.36 287.977 1319.74 289.086 1319.74 289.086L1328.28 273.607L1346.88 275.652L1355.21 284.653L1370.68 289.086L1384.93 314.554L1391.57 355.466H1406.93L1423.57 342.255L1439.64 344.471L1445.11 355.466L1462.92 380.133L1466.78 404.817L1474.63 434.82L1535.5 552.206L942.806 493.155L812.41 541.381L910.962 425.172L921.201 336.715C921.201 336.715 940.997 315.611 942.891 314.554C944.786 313.497 942.618 304.547 942.618 304.547L956.219 276.88Z" fill="#EA8B6E"/>
<path opacity="0.27" d="M956.219 276.881L964.001 269.397H971.766L980.964 259.424H988.729L993.678 268.153H1007.11L1024.07 254.515L1040.21 288.37L1045.33 246.094L1059.46 256.902L1066.53 276.847C1066.53 276.847 1075.71 284.33 1077.84 283.495C1079.98 282.66 1101.15 300.133 1101.15 300.133H1114.59L1122.35 305.11L1130.13 298.462L1162.4 296.757L1178.43 290.092L1203.85 282.336L1219.88 284.552L1234.95 281.228L1246.26 267.931L1262.27 263.499L1268.87 265.715L1282.06 264.607L1296.19 273.505C1296.19 273.505 1303.89 287.876 1306.16 287.876C1308.43 287.876 1319.81 288.984 1319.81 288.984L1328.35 273.505L1346.95 275.551L1355.27 284.552L1370.75 288.984L1385 314.452L1391.64 355.365H1407L1423.64 342.153L1439.71 344.37L1445.17 355.365L1462.99 380.032L1466.85 404.716L1474.7 434.719L1535.57 552.104L942.806 493.156L812.41 541.382L910.962 425.172L921.201 336.715C921.201 336.715 940.997 315.611 942.891 314.554C944.786 313.498 942.618 304.548 942.618 304.548L956.219 276.881Z" fill="url(#paint7_linear_792_355)"/>
<path d="M-51.0254 571.504L-42.8682 501.867L-32.0317 489.065H-17.5604L4.1467 449.55V415.422L14.0958 401.051L22.2359 406.438V417.229L33.0894 423.502V442.373L43.943 425.309L59.3188 420.808L63.824 411.842L77.3909 407.341L87.34 416.325V431.582L112.665 426.195L126.232 411.842L137.99 401.051H145.225L149.748 419.019L166.574 416.325L175.056 401.051L187.906 394.778H214.118L223.094 404.648L240.603 408.245L247.412 421.712L261.884 426.195L268.863 438.23L277.823 402.858L290.997 400.165L296.731 390.277H312.909L326.408 404.648L339.992 405.551L348.831 413.632L364.463 419.922L373.03 456.726L383.593 462.147L387.57 474.489H396.614L406.563 467.926V452.243L415.608 446.089L421.939 451.34L425.557 464.994L430.984 476.671L437.315 484.257L445.182 487.581L452.691 500.043L463.544 502.907L477.06 571.504H-51.0254Z" fill="#F19473"/>
<path opacity="0.45" d="M-51.0254 571.504L-42.8682 501.867L-32.0317 489.065H-17.5604L4.1467 449.55V415.422L14.0958 401.051L22.2359 406.438V417.229L33.0894 423.502V442.373L43.943 425.309L59.3188 420.808L63.824 411.842L77.3909 407.341L87.34 416.325V431.582L112.665 426.195L126.232 411.842L137.99 401.051H145.225L149.748 419.019L166.574 416.325L175.056 401.051L187.906 394.778H214.118L223.094 404.648L226.507 443.242L247.412 421.712L261.884 426.195L268.863 438.23L277.823 402.858L290.997 400.165L296.731 390.277H312.909L326.408 404.648L339.992 405.551L348.831 413.632L364.463 419.922L373.03 456.726L383.593 462.147L387.57 474.489H396.614L406.563 467.926V452.243L415.608 446.089L421.939 451.34L425.557 464.994L430.984 476.671L437.315 484.257L445.182 487.581L452.691 500.043L463.544 502.907L477.06 571.504H-51.0254Z" fill="url(#paint8_linear_792_355)"/>
<path d="M1176.69 484.086C1177.04 483.199 1187.44 444.162 1186.14 428.223C1186.14 428.223 1187.71 460.731 1180.03 485.415L1176.69 484.086Z" fill="#CE6C5D"/>
<path d="M1196.96 435.383C1196.96 435.383 1186.46 444.026 1183.72 455.277L1184.28 459.607C1187.05 450.853 1191.35 442.654 1196.96 435.383Z" fill="#CE6C5D"/>
<path d="M1172.08 436.681C1171.6 435.965 1183.7 443.142 1183.75 460.888L1181.5 466.428C1181.5 466.428 1182.52 452.484 1172.08 436.681Z" fill="#CE6C5D"/>
<path d="M1177.13 484.258C1178.03 483.337 1186.63 463.392 1214.11 463.324C1214.11 463.324 1187.83 466.171 1179.98 485.485L1177.13 484.258Z" fill="#CE6C5D"/>
<path d="M1209.45 469.684C1209.45 469.684 1197.62 467.587 1191.64 470.536L1189.16 473.417C1189.16 473.417 1196.28 468.235 1209.45 469.684Z" fill="#CE6C5D"/>
<path d="M1196.28 453.625C1197.03 456.595 1197.09 459.697 1196.46 462.695C1195.83 465.693 1194.52 468.509 1192.64 470.928C1186.17 479.144 1192.47 469.683 1192.32 470.212C1192.16 470.74 1189.93 471.524 1189.93 471.524C1192.23 469.185 1193.99 466.371 1195.09 463.278C1196.19 460.186 1196.59 456.891 1196.28 453.625Z" fill="#CE6C5D"/>
<path d="M1163.85 448.355C1167.91 459.878 1173.31 470.886 1179.93 481.154L1178.03 482.756C1178.03 482.756 1166.38 461.311 1163.85 448.355Z" fill="#CE6C5D"/>
<path d="M1160.17 455.891C1160.17 455.891 1162.66 460.681 1172.56 468.42L1172.86 470.858C1172.86 470.858 1162.74 462.59 1160.17 455.891Z" fill="#CE6C5D"/>
<path d="M1175.99 460.272C1175.82 459.88 1176.91 467.585 1174.28 473.467C1174.28 473.467 1174.74 476.484 1175.25 476.177C1176.43 473.708 1177.1 471.029 1177.22 468.298C1177.35 465.568 1176.93 462.839 1175.99 460.272Z" fill="#CE6C5D"/>
<path d="M1191.69 456.66C1189.18 458.163 1187.01 460.167 1185.31 462.545C1183.61 464.924 1182.43 467.627 1181.82 470.485L1181.7 472.991C1183.44 466.724 1186.9 461.067 1191.69 456.66Z" fill="#CE6C5D"/>
<path d="M1179.95 481.155C1192.52 480.576 1204.96 478.281 1216.91 474.336C1216.91 474.336 1196.91 481.939 1179.37 482.484L1179.95 481.155Z" fill="#CE6C5D"/>
<path d="M1207.98 485.64C1203.39 482.78 1198.13 481.154 1192.73 480.918L1189.21 481.515C1195.72 481.304 1202.17 482.722 1207.98 485.64Z" fill="#CE6C5D"/>
<path d="M1202.9 472.988C1201.91 475.262 1200.47 477.31 1198.67 479.006L1196.28 480.216C1198.9 478.221 1201.14 475.773 1202.9 472.988Z" fill="#CE6C5D"/>
<path d="M472.094 551.457C472.094 551.457 480.354 558.787 482.333 566.51L480.149 568.76C480.149 568.76 479.637 560.424 472.094 551.457Z" fill="#CE6C5D"/>
<path d="M480.183 548.848C480.183 548.848 484.569 558.939 483.067 566.764L480.115 567.889C480.115 567.889 483.221 560.133 480.183 548.848Z" fill="#CE6C5D"/>
<path d="M485.849 548.949C485.849 548.949 487.299 559.859 483.716 566.985L480.593 567.275C480.593 567.275 485.678 560.643 485.849 548.949Z" fill="#CE6C5D"/>
<path d="M496.856 556.879C496.856 556.879 486.224 559.964 481.122 566.118L482.129 569.085C482.129 569.085 486.173 561.771 496.856 556.879Z" fill="#CE6C5D"/>
<path d="M499.535 562.487C499.535 562.487 488.46 562.078 481.668 566.289V569.426C481.668 569.426 487.828 563.749 499.535 562.487Z" fill="#CE6C5D"/>
<path d="M500.542 568.503C500.542 568.503 490.064 564.957 482.333 567.071L481.429 570.054C481.429 570.054 488.972 566.389 500.542 568.503Z" fill="#CE6C5D"/>
<path d="M466.309 556.434C466.309 556.434 476.804 559.962 481.668 566.287L480.542 569.219C480.542 569.219 476.804 561.752 466.309 556.434Z" fill="#CE6C5D"/>
<path d="M465.695 562.266C465.695 562.266 476.139 564.124 477.845 568.863L484.006 570.925C484.006 570.925 488.647 568.249 497.026 572.085C497.026 572.085 489.876 568.113 482.965 568.454C482.948 568.454 472.879 561.396 465.695 562.266Z" fill="#CE6C5D"/>
<path d="M1360.34 554.661C1360.34 554.661 1207.2 475.376 1103.9 458.329C1000.61 441.282 741.128 586.181 587.336 580.147C433.544 574.112 418.697 521.028 256.457 563.475C192.462 580.215 -37.5437 537.154 -37.5437 537.154V692.776L1351.83 673.325L1360.34 554.661Z" fill="#CE6C5D"/>
<path d="M732.784 554.03C733.074 552.871 734.678 529.721 718.671 508.293C718.671 508.293 733.842 534.153 726.333 552.393L732.784 554.03Z" fill="#C75B46"/>
<path d="M786.983 522.562C787.239 521.897 777.495 539.165 761.846 541.791C746.197 544.416 726.333 552.394 726.333 552.394L732.784 554.099C732.784 554.099 754.491 544.535 762.563 544.723C770.634 544.91 783.485 531.29 786.983 522.562Z" fill="#C75B46"/>
<path d="M774.252 525.121C774.252 525.121 772.546 537.48 765.054 542.168L760.225 543.208C760.225 543.208 769.747 539.355 774.252 525.121Z" fill="#C75B46"/>
<path d="M776.283 546.292C776.283 546.292 769.457 548.679 752.238 545.133L746.709 547.247C746.709 547.247 768.928 549.787 776.283 546.292Z" fill="#C75B46"/>
<path d="M761.607 486.199C761.607 486.199 748.825 509.963 747.955 520.89C747.084 531.817 731.964 553.808 731.964 553.808L726.401 552.393C726.401 552.393 740.872 534.579 744.217 523.242C748.473 510.23 754.313 497.789 761.607 486.199Z" fill="#C75B46"/>
<path d="M773.86 498.781C773.86 498.781 762.699 512.675 746.726 518.931L745.361 524.164C745.361 524.164 768.33 508.532 773.86 498.781Z" fill="#C75B46"/>
<path d="M740.343 506.57C740.933 514.88 741.993 523.149 743.518 531.34L741.606 533.641C741.606 533.641 738.517 513.389 740.343 506.57Z" fill="#C75B46"/>
<path d="M714.643 511.84C718.226 519.272 723.012 526.062 728.807 531.938L729.865 538.757C729.865 538.757 717.22 521.199 714.643 511.84Z" fill="#C75B46"/>
<path d="M731.589 508.445C731.589 508.445 732.562 519.27 726.794 522.219L728.21 526.788C731.265 521.19 732.449 514.763 731.589 508.445Z" fill="#C75B46"/>
<path d="M740.633 536.488C745.093 531.048 750.534 526.492 756.675 523.055C756.675 523.055 742.357 535.635 737.664 543.937L740.633 536.488Z" fill="#C75B46"/>
<path d="M709.916 528.051C715.332 536.486 723.022 543.222 732.101 547.484L730.394 550.144C730.394 550.144 712.646 535.892 709.916 528.051Z" fill="#C75B46"/>
<path d="M715.326 528.512C715.326 528.512 719.421 535.075 719.319 540.274L721.879 541.229C720.357 536.68 718.147 532.392 715.326 528.512Z" fill="#C75B46"/>
<path d="M705.94 535.895C710.918 540.057 716.882 542.874 723.261 544.077L726.811 545.151C726.811 545.151 713.722 546.242 705.94 535.895Z" fill="#C75B46"/>
<path d="M461.36 562.622C459.754 562.782 458.241 563.451 457.043 564.532C456.737 564.763 456.49 565.062 456.322 565.405C456.153 565.748 456.066 566.126 456.07 566.509C456.14 566.84 456.294 567.148 456.519 567.402C456.743 567.656 457.029 567.847 457.35 567.958C457.988 568.176 458.655 568.302 459.329 568.333C460.834 568.524 462.308 568.908 463.715 569.475C464.957 570.179 466.366 570.532 467.794 570.498C468.461 570.359 469.101 570.111 469.688 569.765C471.394 568.896 473.289 567.702 473.408 565.827C473.408 565.026 473.203 564.122 473.681 563.492C474.159 562.861 474.603 562.656 474.313 562.23L472.333 561.48C470.524 560.798 468.579 559.417 466.975 560.883C465.37 562.349 463.835 562.35 461.36 562.622Z" fill="#C75B46"/>
<path d="M472.709 584.799C473.24 585.204 473.811 585.552 474.415 585.839C475.798 586.387 477.28 586.643 478.767 586.589C482.233 586.822 485.698 586.103 488.784 584.509C490.316 583.688 491.586 582.454 492.449 580.947C493.312 579.44 493.733 577.72 493.665 575.985C493.476 574.666 493.085 573.384 492.504 572.184C492.011 570.739 491.003 569.525 489.671 568.775C488.896 568.528 488.071 568.483 487.274 568.644C486.476 568.805 485.733 569.167 485.115 569.695C483.801 570.65 482.794 571.962 481.583 573.104C481.008 573.684 480.317 574.136 479.555 574.43C478.793 574.723 477.978 574.853 477.163 574.809C476.644 574.743 476.156 574.523 475.763 574.178C475.34 573.739 475.066 573.179 474.978 572.576C474.878 570.873 474.878 569.165 474.978 567.462C474.859 565.757 473.698 563.797 471.958 563.865C471.322 563.989 470.72 564.25 470.196 564.63C469.671 565.009 469.236 565.499 468.92 566.064C467.717 567.347 466.947 568.975 466.719 570.718C466.505 572.518 466.609 574.341 467.026 576.105C467.877 579.563 469.881 582.629 472.709 584.799Z" fill="#C75B46"/>
<path d="M492.129 562.402C492.897 560.851 492.863 558.993 493.477 557.425C493.599 557.058 493.797 556.721 494.057 556.436C494.321 556.215 494.632 556.059 494.967 555.979C495.302 555.899 495.651 555.898 495.986 555.976C497.294 556.332 498.417 557.173 499.126 558.328C499.819 559.467 500.601 560.55 501.464 561.567C503.572 563.306 506.19 564.311 508.921 564.431C514.604 565.215 520.611 565.658 525.474 568.693C526.514 569.278 527.393 570.109 528.034 571.113C528.554 572.295 528.728 573.6 528.534 574.877C528.341 576.153 527.789 577.349 526.942 578.324C526.032 579.555 524.918 580.622 523.648 581.478C522.795 582.04 521.942 582.501 521.003 583.012C518.392 584.563 516.106 586.609 513.563 588.263C511.088 590.056 508.086 590.974 505.03 590.871C502.18 590.598 499.672 588.996 497.01 587.956C493.989 586.762 490.73 586.251 487.624 585.331C486.149 584.959 484.793 584.22 483.682 583.183C482.993 582.362 482.503 581.394 482.248 580.353C481.994 579.313 481.982 578.228 482.214 577.182C482.676 575.385 483.328 573.642 484.159 571.983C484.535 570.728 485.111 569.542 485.866 568.471C487.675 566.238 490.781 565.113 492.129 562.402Z" fill="#C75B46"/>
<path d="M511.839 561.019C512.132 560.442 512.486 559.899 512.897 559.399C513.529 558.863 514.321 558.552 515.149 558.515C515.977 558.478 516.794 558.717 517.471 559.195C518.796 560.185 519.818 561.525 520.423 563.064C521.034 564.599 521.849 566.044 522.846 567.36C523.256 567.837 523.768 568.332 523.768 568.963C523.768 569.968 522.522 570.446 521.515 570.548C517.078 570.974 512.795 569.201 508.938 567.258C507.59 566.593 505.167 565.468 507.368 564.462C509.188 563.819 510.754 562.613 511.839 561.019Z" fill="#C75B46"/>
<path d="M493.357 576.258C493.23 577.757 492.824 579.219 492.163 580.571C491.477 582.483 491.091 584.49 491.02 586.52C491.059 587.226 490.918 587.93 490.61 588.566C490.023 589.234 489.251 589.715 488.391 589.947C486.539 590.806 484.886 592.04 483.537 593.572C482.189 595.104 481.174 596.9 480.558 598.845C479.354 602.736 478.942 606.828 479.347 610.881C479.394 611.209 479.353 611.545 479.227 611.852C479.102 612.063 478.926 612.239 478.715 612.364C477.275 613.34 475.528 613.758 473.801 613.54C475.486 611.698 476.46 609.317 476.548 606.823C476.939 603.998 477.15 601.152 477.18 598.3C477.061 596.778 477.337 595.252 477.982 593.868C478.506 593.134 479.076 592.434 479.688 591.771C480.255 590.999 480.731 590.164 481.105 589.282L482.811 585.873C483.186 585.183 483.456 584.442 483.613 583.674C483.707 582.788 483.637 581.892 483.408 581.031C482.737 579.053 482.47 576.96 482.623 574.877C482.917 573.541 483.643 572.338 484.688 571.454C485.733 570.57 487.041 570.054 488.409 569.985C490.968 569.934 493.323 573.889 493.357 576.258Z" fill="#C75B46"/>
<path d="M491.583 585.961C492.163 587.239 492.914 588.467 493.392 589.797C493.753 590.946 494.004 592.128 494.143 593.325C494.757 597.229 495.354 601.133 495.969 605.054C496.283 606.572 496.369 608.129 496.225 609.673C496.153 610.448 495.915 611.198 495.526 611.872C495.138 612.546 494.607 613.127 493.972 613.577C493.187 614.071 492.112 614.498 492.078 615.401C493.962 616.153 495.995 616.456 498.016 616.287C497.044 613.986 499.194 611.548 499.33 609.043C499.33 607.747 498.921 606.486 498.955 605.19C498.955 603.485 500.013 601.781 499.911 599.974C499.721 598.814 499.43 597.673 499.04 596.564C498.358 593.803 499.194 590.939 499.586 588.041C499.868 585.828 499.868 583.588 499.586 581.375C499.434 579.646 498.891 577.973 497.999 576.483C497.539 575.741 496.906 575.121 496.154 574.676C495.403 574.231 494.554 573.973 493.682 573.926C487.863 574.011 490.218 582.944 491.583 585.961Z" fill="#C75B46"/>
<path d="M519.297 586.695C519.293 587.438 519.443 588.175 519.737 588.858C520.03 589.541 520.461 590.157 521.003 590.667C522.591 592.667 523.985 594.813 525.167 597.076C526.572 599.345 527.212 602.004 526.993 604.662C526.799 605.638 526.508 606.592 526.123 607.509L524.536 611.686C524.097 613.343 523.126 614.81 521.771 615.862C520.577 616.595 518.853 616.817 518.358 618.129C518.32 618.212 518.3 618.302 518.3 618.394C518.3 618.485 518.32 618.575 518.358 618.658C518.465 618.82 518.63 618.936 518.819 618.982C519.631 619.274 520.464 619.508 521.31 619.681C521.993 619.86 522.71 619.86 523.392 619.681C524.33 619.224 525.07 618.443 525.474 617.481C527.075 614.451 528.516 611.338 529.792 608.157C530.44 606.571 531.106 605.003 531.771 603.418C532.042 602.887 532.205 602.307 532.249 601.713C532.249 600.417 531.294 599.361 530.543 598.304C529.226 595.814 528.833 592.94 529.433 590.189C529.894 587.445 530.867 584.802 531.43 582.075C532.148 579.355 531.981 576.477 530.952 573.858C530.345 572.442 529.266 571.279 527.898 570.568C525.491 569.392 518.887 569.92 518.222 573.176C518.098 575.346 518.247 577.522 518.665 579.654C518.938 581.853 519.126 584.24 519.297 586.695Z" fill="#C75B46"/>
<path d="M529.86 584.887C529.932 586.029 530.063 587.167 530.253 588.296C530.348 588.87 530.557 589.418 530.868 589.91C531.178 590.402 531.584 590.827 532.062 591.16C533.256 591.893 534.826 591.739 536.072 592.387C536.819 592.852 537.492 593.427 538.069 594.092C538.768 594.791 539.553 595.405 540.27 596.069C543.807 599.452 546.335 603.748 547.574 608.48C547.754 609.184 547.97 609.878 548.222 610.559C548.378 610.9 548.503 611.254 548.598 611.616C548.637 612.311 548.528 613.006 548.278 613.656C548.028 614.305 547.643 614.894 547.147 615.384C548.129 615.691 549.189 615.632 550.13 615.219C551.071 614.805 551.831 614.064 552.267 613.133C552.395 612.861 552.465 612.565 552.472 612.264C552.383 611.695 552.135 611.163 551.755 610.73C548.87 606.679 547.104 601.94 546.635 596.99C546.63 596.195 546.456 595.411 546.123 594.689C545.441 593.529 543.99 593.103 542.881 592.319C541.831 591.501 540.969 590.466 540.355 589.285C537.318 584.017 535.85 577.914 532.249 573.022C531.672 572.091 530.802 571.377 529.775 570.993C529.078 570.86 528.358 570.914 527.689 571.151C527.02 571.388 526.427 571.798 525.969 572.34C525.235 573.431 526.072 574.573 526.567 575.647C528.132 578.54 529.242 581.656 529.86 584.887Z" fill="#C75B46"/>
<path d="M-55.4111 570.43C-38.6189 558.497 159.117 612.229 296.765 616.849C570.868 626.071 542.301 537.444 678.038 546.786C847.684 558.463 928.898 495.082 1049.81 501.765C1170.71 508.447 1412.75 528.443 1409.32 541.791C1405.89 555.139 1407.9 709.567 1407.9 709.567L-72.2034 691.907L-55.4111 570.43Z" fill="#C75B46"/>
<path d="M601.176 571.59C601.176 571.59 632.491 584.852 645.836 605.428L641.689 614.122C641.689 614.122 632.03 590.342 601.176 571.59Z" fill="#A4342C"/>
<path d="M622.098 556.008C622.098 556.008 644.897 581.186 648.293 605.444L640.853 611.598C640.853 611.598 642.15 585.959 622.098 556.008Z" fill="#A4342C"/>
<path d="M638.737 550.895C638.737 550.895 653.805 581.204 650.443 605.445L641.604 609.366C641.604 609.366 649.863 584.988 638.737 550.895Z" fill="#A4342C"/>
<path d="M678.652 563.152C678.652 563.152 650.785 582.552 641.996 605.446L647.867 613.1C647.867 613.1 652.372 587.819 678.652 563.152Z" fill="#A4342C"/>
<path d="M692.015 576.855C692.015 576.855 659.386 586.487 643.754 605.426L646.877 614.529C646.877 614.529 659.215 591.993 692.015 576.855Z" fill="#A4342C"/>
<path d="M700.923 593.375C700.923 593.375 666.894 593.375 646.45 607.013L646.826 616.627C646.826 616.627 665.137 598.625 700.923 593.375Z" fill="#A4342C"/>
<path d="M589.281 591.809C589.281 591.809 623.327 591.809 643.754 605.446L643.396 615.061C643.396 615.061 625.084 596.923 589.281 591.809Z" fill="#A4342C"/>
<path d="M593.275 609.348C593.275 609.348 625.494 604.524 635.17 616.644H655.205C655.205 616.644 666.058 604.285 694.25 607.251C694.25 607.251 669.471 602.683 649.676 610.456C649.676 610.456 613.309 599.767 593.275 609.348Z" fill="#A4342C"/>
<path d="M249.87 513.273C249.87 513.273 268.642 525.479 274.922 540.378L271.219 545.492C271.219 545.492 267.703 528.991 249.87 513.273Z" fill="#A4342C"/>
<path d="M265.263 505.602C265.263 505.602 277.123 524.524 276.509 540.65L270.962 543.804C270.962 543.804 274.751 527.319 265.263 505.602Z" fill="#A4342C"/>
<path d="M276.662 504.133C276.662 504.133 282.908 525.544 277.908 540.903L271.713 542.42C271.713 542.42 279.871 527.607 276.662 504.133Z" fill="#A4342C"/>
<path d="M301.151 516.699C301.151 516.699 280.792 526.092 272.43 539.934L275.331 545.577C275.331 545.577 281.202 529.706 301.151 516.699Z" fill="#A4342C"/>
<path d="M308.216 527.129C308.216 527.129 285.912 529.635 273.557 540.136L274.529 546.392C274.529 546.392 285.161 533.198 308.216 527.129Z" fill="#A4342C"/>
<path d="M312.09 538.961C312.09 538.961 289.991 535.007 275.127 541.553L274.239 547.826C274.239 547.826 288.25 538.126 312.09 538.961Z" fill="#A4342C"/>
<path d="M239.784 525C239.784 525 261.969 528.887 273.557 540.138L272.208 546.326C272.208 546.326 262.43 532.484 239.784 525Z" fill="#A4342C"/>
<path d="M240.331 536.866C240.331 536.866 261.816 537.446 266.679 546.43L279.683 548.731C279.683 548.731 288.216 541.912 306.117 547.129C306.117 547.129 290.571 541.316 276.816 544.077C276.816 544.077 254.461 532.963 240.331 536.866Z" fill="#A4342C"/>
<path d="M445.797 548.762C447.162 539.335 446.599 518.078 446.138 506.315C446.054 504.137 445.126 502.077 443.55 500.569C441.974 499.062 439.873 498.225 437.691 498.235C436.534 498.219 435.386 498.442 434.318 498.888C433.251 499.335 432.287 499.996 431.487 500.83C430.686 501.665 430.066 502.656 429.666 503.74C429.265 504.824 429.092 505.98 429.158 507.134C430.045 521.794 431.547 550.655 430.762 563.389C429.687 580.811 436.172 613.064 436.172 613.064H443.698C452.725 584.442 443.834 562.093 445.797 548.762Z" fill="#A4342C"/>
<path d="M428.902 539.302C432.964 539.302 436.257 536.028 436.257 531.989C436.257 527.95 432.964 524.676 428.902 524.676C424.84 524.676 421.547 527.95 421.547 531.989C421.547 536.028 424.84 539.302 428.902 539.302Z" fill="#A4342C"/>
<path d="M450.114 542.949C450.117 543.462 449.968 543.965 449.685 544.393C449.402 544.822 448.998 545.156 448.525 545.355C448.051 545.554 447.529 545.608 447.025 545.51C446.52 545.412 446.057 545.166 445.692 544.804C445.328 544.443 445.079 543.981 444.977 543.478C444.876 542.975 444.926 542.453 445.122 541.979C445.318 541.504 445.65 541.098 446.077 540.813C446.504 540.528 447.006 540.375 447.52 540.375C447.86 540.373 448.197 540.438 448.512 540.566C448.826 540.694 449.112 540.884 449.353 541.123C449.594 541.362 449.786 541.647 449.916 541.96C450.047 542.274 450.114 542.61 450.114 542.949Z" fill="#A4342C"/>
<path d="M448.715 584.018C452.004 584.018 454.671 581.37 454.671 578.103C454.671 574.836 452.004 572.188 448.715 572.188C445.425 572.188 442.759 574.836 442.759 578.103C442.759 581.37 445.425 584.018 448.715 584.018Z" fill="#A4342C"/>
<path d="M398.986 522.782C398.663 521.794 398.143 520.881 397.459 520.098C396.774 519.315 395.939 518.678 395.002 518.224C394.065 517.771 393.047 517.51 392.008 517.459C390.968 517.407 389.929 517.565 388.952 517.924C387.119 518.59 385.607 519.927 384.723 521.665C383.839 523.402 383.649 525.41 384.191 527.282C395.642 566.729 421.615 605.494 421.615 605.494L428.902 602.835C419.687 585.344 404.806 540.664 398.986 522.782Z" fill="#A4342C"/>
<path d="M383.525 554.046C382.765 552.749 381.572 551.76 380.156 551.252C378.74 550.744 377.19 550.75 375.778 551.267C374.915 551.578 374.129 552.072 373.476 552.714C372.822 553.357 372.316 554.134 371.991 554.991C371.667 555.848 371.532 556.765 371.597 557.679C371.661 558.593 371.923 559.482 372.364 560.285C381.392 576.395 403.782 571.349 403.782 571.349L400.812 563.337C392.024 565.689 386.392 558.99 383.525 554.046Z" fill="#A4342C"/>
<path d="M413.185 535.552C412.195 535.913 411.356 536.598 410.805 537.496C410.253 538.393 410.022 539.45 410.147 540.495C410.547 542.557 410.319 544.69 409.491 546.62C408.664 548.55 407.275 550.188 405.505 551.32L406.905 555.139C410.274 554.315 413.299 552.455 415.552 549.822C417.806 547.188 419.174 543.914 419.465 540.461C419.551 539.669 419.434 538.867 419.124 538.132C418.813 537.397 418.321 536.753 417.692 536.262C417.063 535.77 416.319 535.447 415.53 535.323C414.742 535.199 413.934 535.277 413.185 535.552Z" fill="#A4342C"/>
<path d="M716.998 527.337C714.37 527.65 711.905 528.776 709.95 530.559C709.448 530.939 709.043 531.432 708.767 531.997C708.492 532.563 708.353 533.186 708.363 533.815C708.485 534.357 708.746 534.859 709.12 535.272C709.493 535.684 709.968 535.992 710.496 536.167C711.552 536.509 712.648 536.715 713.756 536.781C716.226 537.031 718.653 537.604 720.974 538.486C723.142 539.355 725.394 540.497 727.681 540.19C728.769 539.947 729.812 539.533 730.77 538.963C733.534 537.497 736.657 535.554 736.845 532.434C736.845 531.121 736.47 529.655 737.255 528.598C737.767 527.934 738.756 527.218 738.279 526.519L735.002 525.325C732.033 524.234 728.824 521.916 726.196 524.388C723.176 527.166 721.06 526.894 716.998 527.337Z" fill="#A4342C"/>
<path d="M735.838 563.611C736.7 564.28 737.633 564.851 738.62 565.316C740.905 566.191 743.342 566.596 745.787 566.509C751.476 566.826 757.144 565.595 762.187 562.946C767.051 560.048 770.72 554.61 770.071 549.019C769.759 546.847 769.096 544.74 768.109 542.78C767.085 540.495 765.771 538.075 763.433 537.12C762.154 536.731 760.798 536.673 759.491 536.95C758.184 537.227 756.968 537.831 755.958 538.706C753.825 540.291 752.187 542.456 750.19 544.229C749.259 545.187 748.132 545.933 746.887 546.419C745.641 546.904 744.306 547.116 742.972 547.041C742.117 546.942 741.314 546.586 740.668 546.019C739.973 545.306 739.519 544.394 739.371 543.41C738.808 540.632 739.61 537.751 739.371 534.887C739.132 532.023 737.238 528.904 734.371 529.023C732.237 529.125 730.685 530.983 729.405 532.671C727.458 534.801 726.219 537.481 725.855 540.342C725.532 543.303 725.734 546.298 726.452 549.189C727.829 554.931 731.144 560.024 735.838 563.611Z" fill="#A4342C"/>
<path d="M767.511 526.55C768.74 524.01 768.689 521.026 769.645 518.384C769.827 517.75 770.154 517.167 770.6 516.68C771.028 516.31 771.537 516.047 772.085 515.911C772.634 515.775 773.206 515.769 773.757 515.895C775.886 516.466 777.716 517.826 778.877 519.697C780.036 521.561 781.337 523.334 782.768 524.998C785.908 528.152 790.618 529.022 795.055 529.601C804.407 530.811 814.253 531.442 822.359 536.42C824.071 537.374 825.528 538.724 826.609 540.358C828.742 544.023 827.376 548.779 824.902 552.291C823.426 554.328 821.607 556.093 819.526 557.507C818.144 558.445 816.659 559.212 815.226 560.064C810.96 562.655 807.239 566.031 803.075 568.775C798.912 571.52 794.031 573.633 789.048 573.19C784.372 572.781 780.242 570.173 775.856 568.502C770.873 566.593 765.515 565.877 760.412 564.326C757.982 563.769 755.736 562.594 753.893 560.916C752.717 559.559 751.877 557.945 751.442 556.204C751.006 554.462 750.986 552.643 751.385 550.893C752.129 547.952 753.175 545.095 754.508 542.369C755.09 540.305 756.013 538.352 757.238 536.59C760.259 532.874 765.344 531.033 767.511 526.55Z" fill="#A4342C"/>
<path d="M799.867 524.013C800.33 523.063 800.903 522.17 801.574 521.354C802.604 520.464 803.901 519.943 805.261 519.872C806.621 519.801 807.965 520.184 809.082 520.962C811.275 522.568 812.976 524.752 813.997 527.269C815.003 529.782 816.359 532.141 818.025 534.275C818.826 534.943 819.365 535.873 819.543 536.901C819.543 538.605 817.53 539.355 815.874 539.526C808.605 540.293 801.557 537.446 795.191 534.309C792.973 533.218 788.98 531.428 792.563 529.741C795.55 528.326 798.109 527.03 799.867 524.013Z" fill="#A4342C"/>
<path d="M769.645 549.307C769.456 551.765 768.82 554.169 767.767 556.399C766.656 559.54 766.046 562.836 765.958 566.167C766.059 567.339 765.84 568.517 765.327 569.576C764.385 570.695 763.122 571.498 761.709 571.877C758.679 573.317 755.982 575.37 753.788 577.905C751.593 580.44 749.95 583.403 748.961 586.606C747.04 593.01 746.419 599.733 747.135 606.38C747.235 606.92 747.176 607.477 746.965 607.983C746.749 608.318 746.464 608.602 746.129 608.818C743.78 610.449 740.915 611.165 738.074 610.83C741.094 608.085 741.982 603.789 742.511 599.749C743.093 595.129 743.395 590.478 743.415 585.822C743.193 583.325 743.616 580.813 744.644 578.526C745.5 577.338 746.423 576.199 747.408 575.116C748.316 573.833 749.082 572.455 749.695 571.008L752.34 565.331C752.933 564.192 753.363 562.976 753.62 561.717C753.768 560.258 753.641 558.783 753.245 557.37C752.477 554.046 751.282 550.654 751.862 547.296C752.324 545.095 753.498 543.108 755.204 541.641C756.91 540.174 759.052 539.31 761.3 539.181C765.702 538.96 769.645 545.421 769.645 549.307Z" fill="#A4342C"/>
<path d="M766.948 565.23C767.938 567.344 769.167 569.338 769.952 571.52C770.56 573.398 771 575.326 771.266 577.282C772.313 583.692 773.359 590.107 774.406 596.528C774.944 599.019 775.111 601.575 774.901 604.114C774.791 605.387 774.408 606.622 773.778 607.734C773.147 608.846 772.285 609.809 771.249 610.558C769.986 611.376 768.228 612.075 768.177 613.575C771.282 614.775 774.623 615.241 777.938 614.939C776.232 611.172 779.798 607.149 779.986 603.006C780.089 600.892 779.287 598.83 779.321 596.699C779.321 593.784 781.027 591.022 780.822 588.175C780.492 586.277 779.995 584.412 779.338 582.601C778.177 578.084 779.525 573.379 780.106 568.742C780.584 565.115 780.584 561.441 780.106 557.815C779.842 554.968 778.925 552.221 777.426 549.786C776.659 548.578 775.611 547.573 774.373 546.855C773.134 546.137 771.741 545.727 770.31 545.66C760.668 545.66 764.662 560.304 766.948 565.23Z" fill="#A4342C"/>
<path d="M812.461 565.966C812.505 566.937 812.672 567.899 812.956 568.829C813.527 570.17 814.33 571.399 815.328 572.46C817.972 575.721 820.297 579.226 822.274 582.927C824.322 586.763 826.011 591.059 825.363 595.355C825.056 596.958 824.593 598.529 823.98 600.042L821.421 606.861C820.465 609.469 819.339 612.265 816.967 613.68C815.004 614.89 812.171 615.385 811.386 617.464C811.323 617.601 811.291 617.749 811.291 617.899C811.291 618.049 811.323 618.198 811.386 618.334C811.567 618.596 811.842 618.779 812.154 618.845C813.487 619.32 814.857 619.685 816.25 619.936C817.367 620.243 818.546 620.243 819.663 619.936C821.2 619.174 822.411 617.885 823.076 616.305C825.66 611.317 827.979 606.196 830.022 600.963C831.08 598.372 832.155 595.849 833.213 593.156C833.652 592.26 833.913 591.287 833.981 590.292C833.981 588.161 832.359 586.439 831.233 584.615C829.06 580.554 828.4 575.854 829.373 571.352C830.073 566.835 831.626 562.471 832.53 557.988C833.663 553.512 833.353 548.793 831.643 544.503C830.599 542.187 828.792 540.298 826.523 539.151C822.547 537.258 811.71 538.196 810.669 543.549C810.038 546.72 811.216 550.998 811.489 554.203C811.807 558.124 812.131 562.045 812.461 565.966Z" fill="#A4342C"/>
<path d="M829.783 562.945C830.022 564.837 830.022 566.763 830.448 568.621C830.618 569.563 830.972 570.462 831.49 571.266C832.009 572.071 832.681 572.765 833.469 573.309C835.448 574.485 838.025 574.213 840.073 575.27C841.313 576.041 842.429 576.995 843.384 578.099C844.544 579.224 845.824 580.213 847.019 581.304C852.876 586.804 857.089 593.821 859.186 601.573C859.528 602.715 859.818 603.874 860.278 604.982C860.531 605.534 860.742 606.104 860.91 606.687C861.422 608.92 859.954 611.068 858.572 612.875C860.209 613.405 861.984 613.314 863.559 612.619C865.133 611.924 866.395 610.674 867.105 609.108C867.307 608.664 867.412 608.181 867.412 607.693C867.264 606.755 866.85 605.879 866.217 605.17C861.449 598.558 858.506 590.81 857.684 582.702C857.662 581.397 857.359 580.113 856.797 578.935C855.671 577.025 853.282 576.344 851.439 575.082C849.711 573.746 848.291 572.054 847.275 570.121C842.155 561.598 839.698 551.523 833.725 543.545C832.773 542.018 831.338 540.854 829.646 540.238C828.496 540.035 827.312 540.139 826.215 540.54C825.118 540.941 824.147 541.625 823.4 542.522C822.223 544.312 823.622 546.17 824.424 547.943C826.609 552.802 829.1 557.711 829.783 562.945Z" fill="#A4342C"/>
<path d="M-58.8071 627.4C-58.8071 627.4 115.361 519.186 256.457 540.665C397.553 562.144 442.878 631.9 562.148 611.938C812.41 569.918 1030.74 627.4 1030.74 627.4L993.814 798.654L-58.8071 758.065V627.4Z" fill="#A4342C"/>
<path d="M946.39 580.114C946.39 578.325 952.704 544.316 983.814 519.223C983.814 519.223 952.243 551.015 956.305 580.114H946.39Z" fill="#6A1A16"/>
<path d="M879.801 514.736C879.664 513.679 887.31 542.198 908.949 551.762C930.587 561.325 956.305 580.111 956.305 580.111H946.39C946.39 580.111 918.573 558.325 906.85 555.631C895.126 552.938 881.593 528.629 879.801 514.736Z" fill="#6A1A16"/>
<path d="M897.225 523.109C897.225 523.109 895.126 541.605 904.153 551.169L910.758 554.442C910.758 554.442 898.436 545.339 897.225 523.109Z" fill="#6A1A16"/>
<path d="M886.405 552.957C886.405 552.957 895.433 558.923 921.577 560.117L928.796 565.231C928.796 565.231 895.723 560.713 886.405 552.957Z" fill="#6A1A16"/>
<path d="M930.058 471.523C930.058 471.523 939.666 510.561 936.884 526.687C934.103 542.814 947.704 580.113 947.704 580.113H956.236C956.236 580.113 941.953 549.07 941.355 531.461C940.758 513.851 934.802 484.411 930.058 471.523Z" fill="#6A1A16"/>
<path d="M907.6 485.195C907.6 485.195 918.573 509.368 939.325 524.301V532.347C939.325 532.347 911.969 501.305 907.6 485.195Z" fill="#6A1A16"/>
<path d="M953.148 508.77C949.188 520.558 944.573 532.117 939.325 543.392L941.236 547.415C941.236 547.415 953.267 519.219 953.148 508.77Z" fill="#6A1A16"/>
<path d="M988.319 525.816C988.319 525.816 978.916 538.107 960.366 549.682L956.305 559.092C956.305 559.092 981.1 538.397 988.319 525.816Z" fill="#6A1A16"/>
<path d="M965.093 514.719C965.093 514.719 959.632 530.061 966.885 536.368L963.131 542.454C960.79 533.238 961.478 523.514 965.093 514.719Z" fill="#6A1A16"/>
<path d="M941.646 551.916C941.646 551.916 936.833 539.813 923.454 526.602C923.454 526.602 939.478 550.041 943.147 563.781L941.646 551.916Z" fill="#6A1A16"/>
<path d="M989.224 551.012C978.209 561.227 964.534 568.134 949.769 570.94L951.339 575.423C951.339 575.423 982.227 561.308 989.224 551.012Z" fill="#6A1A16"/>
<path d="M981.1 549.668C981.1 549.668 972.721 557.714 971.015 565.198L966.953 565.641C970.84 559.637 975.609 554.253 981.1 549.668Z" fill="#6A1A16"/>
<path d="M991.92 563.781C991.92 563.781 978.268 570.719 963.882 569.151L958.336 569.373C958.336 569.373 976.817 575.868 991.92 563.781Z" fill="#6A1A16"/>
<path d="M1218.62 448.458C1215.36 447.665 1211.98 447.552 1208.69 448.126C1205.39 448.701 1202.25 449.95 1199.46 451.796C1196.67 453.642 1194.29 456.044 1192.47 458.852C1190.66 461.661 1189.44 464.814 1188.9 468.113C1180.7 519.646 1180.18 582.089 1180.18 582.089L1197.98 586.385C1214.11 549.615 1228.19 505.531 1236.18 478.751C1237.11 475.609 1237.39 472.311 1237 469.058C1236.61 465.806 1235.56 462.666 1233.92 459.831C1232.28 456.996 1230.07 454.525 1227.44 452.57C1224.81 450.614 1221.81 449.215 1218.62 448.458Z" fill="#6A1A16"/>
<path d="M1256.52 494.64C1253.47 493.901 1250.27 494.3 1247.5 495.76C1244.73 497.22 1242.59 499.641 1241.48 502.567C1237.66 512.795 1229.28 526.296 1211.96 524.728L1209.67 534.086C1209.67 534.086 1244.61 547.127 1264.54 513.511C1265.56 511.794 1266.16 509.862 1266.29 507.871C1266.43 505.879 1266.09 503.884 1265.31 502.047C1264.53 500.209 1263.33 498.581 1261.8 497.295C1260.27 496.008 1258.46 495.098 1256.52 494.64Z" fill="#6A1A16"/>
<path d="M575.612 448.697C575.844 448.656 576.083 448.664 576.312 448.72C576.541 448.775 576.756 448.878 576.943 449.021C577.216 449.358 577.361 449.781 577.353 450.214C577.417 451.323 577.26 452.433 576.891 453.481C576.521 454.529 575.948 455.493 575.203 456.317C574.431 457.013 573.743 457.796 573.155 458.653C572.699 459.687 572.494 460.814 572.558 461.943C572.558 464.091 572.438 466.221 572.387 468.369C572.29 470.24 572.347 472.116 572.558 473.978C572.814 475.87 573.394 477.694 573.667 479.586C574.281 483.814 573.36 488.11 573.872 492.406C574.579 496.447 575.957 500.342 577.95 503.929C578.795 506.032 580.108 507.915 581.79 509.435C582.65 510.181 583.724 510.635 584.858 510.733C585.992 510.831 587.129 510.567 588.104 509.981C591.396 523.186 591.331 537.004 587.916 550.178L577.677 544.552C574.985 543.218 572.463 541.564 570.168 539.626C567.26 536.757 565.053 533.257 563.718 529.397C562.483 526.15 561.557 522.794 560.953 519.374C560.509 516.902 560.202 514.413 559.912 511.907C558.547 500.679 557.193 489.445 555.851 478.205C555.842 477.308 555.502 476.446 554.895 475.785C554.452 475.492 553.977 475.252 553.479 475.069C551.397 474.046 550.765 471.37 550.816 469.034C550.868 466.699 551.397 464.312 550.629 462.13C550.189 461.098 549.693 460.091 549.144 459.113C548.194 456.667 547.797 454.041 547.984 451.425C547.941 450.69 548.088 449.956 548.41 449.294C548.581 448.969 548.862 448.716 549.203 448.578C549.543 448.441 549.922 448.429 550.27 448.544C551.107 448.953 551.226 450.248 552.096 450.555C552.967 450.862 553.803 450.095 554.4 449.481C555.671 448.45 557.181 447.754 558.79 447.457C560.4 447.159 562.059 447.269 563.615 447.777C566.789 448.68 568.633 450.998 571.261 452.601C571.525 451.597 572.078 450.692 572.852 449.999C573.625 449.305 574.585 448.852 575.612 448.697Z" fill="#6A1A16"/>
<path d="M597.285 535.109C596.193 539.95 595.084 544.979 596.074 549.838C597.063 554.696 600.169 559.128 601.91 563.919C606.364 576.158 601.517 589.591 596.79 601.746C594.623 607.354 592.422 613.321 593.48 619.253C593.578 620.04 593.859 620.792 594.299 621.452C594.929 622.107 595.762 622.53 596.663 622.654C597.564 622.778 598.481 622.595 599.265 622.134C600.818 621.187 602.123 619.884 603.07 618.332C604.627 616.481 605.758 614.31 606.381 611.974C606.543 609.914 606.543 607.845 606.381 605.786C606.568 603.12 607.143 600.496 608.087 597.995C610.169 591.552 612.257 585.108 614.35 578.664C615.069 575.63 616.515 572.816 618.566 570.465C621.757 567.345 626.893 566.629 629.726 563.185C630.938 561.513 631.823 559.628 632.337 557.628L637.747 541.127C638.99 537.704 639.876 534.162 640.392 530.558C640.823 527.74 640.351 524.858 639.044 522.324C635.477 516.221 626.262 515.931 621.706 510.527C620.136 508.652 619.009 506.112 616.671 505.413C611.04 503.709 605.118 512.624 603.019 516.596C600.361 522.511 598.435 528.728 597.285 535.109Z" fill="#6A1A16"/>
<path d="M673.123 542.626C673.942 548.66 674.756 554.689 675.564 560.712C675.876 563.557 676.412 566.373 677.168 569.134C678.175 572.373 679.779 575.407 680.803 578.629C682.919 585.277 682.509 592.42 683.243 599.341C683.601 602.563 684.489 606.16 687.27 607.864C688.194 608.328 689.217 608.559 690.25 608.535C691.283 608.512 692.295 608.236 693.196 607.731C694.097 607.226 694.861 606.508 695.42 605.64C695.978 604.771 696.315 603.779 696.4 602.75C696.296 601.305 695.968 599.884 695.428 598.54C692.117 588.175 693.533 576.992 694.967 566.15C695.564 561.786 696.144 557.422 696.673 553.041C697.714 545.336 698.738 537.529 697.868 529.806C696.998 522.084 693.96 514.293 688.073 509.162C682.509 504.321 673.192 501.968 671.86 510.867C670.342 521.555 671.707 532.142 673.123 542.626Z" fill="#6A1A16"/>
<path d="M601.978 622.678C598.583 635.122 597.541 648.089 598.906 660.915C592.109 661.737 585.243 661.817 578.428 661.153C578.805 659.223 579.821 657.476 581.312 656.193C586.909 649.868 590.015 641.72 591.995 633.52C593.121 628.883 593.906 624.196 594.725 619.491C595.22 616.729 595.254 608.938 597.729 607.2C599.777 605.768 602.848 607.779 603.787 609.706C605.459 613.217 602.934 619.218 601.978 622.678Z" fill="#6A1A16"/>
<path d="M683.414 617.002C681.673 625.15 679.784 633.27 677.748 641.362C676.758 645.283 675.529 649.51 672.253 651.931C670.956 652.903 669.215 653.738 669.01 655.341C673.934 656.396 679.001 656.603 683.994 655.954C684.318 655.952 684.637 655.88 684.931 655.745C685.226 655.61 685.488 655.414 685.7 655.17C685.95 654.552 685.95 653.862 685.7 653.244C685.341 651.508 685.374 649.713 685.796 647.991C686.218 646.269 687.019 644.662 688.141 643.288C688.883 642.585 689.465 641.731 689.847 640.782C690.003 639.501 689.778 638.203 689.199 637.049C686.281 628.355 691.383 619.269 693.158 610.268C693.789 607.132 693.158 596.528 687.475 600.04C683.653 602.307 684.216 613.183 683.414 617.002Z" fill="#6A1A16"/>
<path d="M595.442 574.761C598.326 580.267 602.115 585.45 603.446 591.518C604.333 595.558 604.094 599.837 605.528 603.724C606.791 606.533 608.298 609.225 610.033 611.77C612.491 616.416 614.42 621.322 615.784 626.396C617.951 633.437 619.948 641.739 615.562 647.654C613.292 650.74 609.384 653.007 608.872 656.825C608.824 657.05 608.822 657.282 608.866 657.508C608.91 657.733 608.999 657.948 609.128 658.138C609.363 658.331 609.639 658.469 609.934 658.54C610.23 658.611 610.538 658.613 610.835 658.547L625.204 657.78C624.72 654.827 624.972 651.8 625.938 648.967C626.351 647.948 626.665 646.892 626.876 645.813C626.941 643.86 626.537 641.919 625.699 640.153C622.981 632.632 621.607 624.693 621.637 616.697C621.908 613.193 621.678 609.669 620.955 606.23C619.955 603.498 618.698 600.866 617.2 598.371C614.082 592.201 612.606 585.332 612.917 578.426C612.895 576.891 613.271 575.375 614.009 574.028C614.693 573.092 615.544 572.289 616.518 571.659C624.881 565.529 633.922 560.381 643.464 556.316C648.703 554.066 654.198 552.089 658.532 548.407C663.652 544.094 667.065 537.462 673.516 535.553C676.332 534.718 679.437 534.905 682.048 533.559C683.657 532.57 684.972 531.17 685.857 529.504C686.742 527.837 687.165 525.965 687.083 524.08C686.85 520.265 685.913 516.526 684.318 513.051C682.612 508.397 680.7 503.539 677.014 500.198C672.918 496.498 667.116 495.169 661.655 495.271C656.138 495.645 650.663 496.489 645.29 497.794C630.716 500.556 615.801 500.948 601.108 503.01C599.683 503.118 598.297 503.531 597.046 504.221C594.435 505.925 594.026 509.454 593.224 512.437C591.517 518.983 587.097 522.546 582.233 526.808C578.206 530.337 574.725 535.57 576.824 541.025C578.769 546.139 583.803 550.196 586.449 555.021C589.93 561.362 592.166 568.317 595.442 574.761Z" fill="#6A1A16"/>
<path d="M580.22 508.379C582.114 510.322 585.561 509.828 587.592 508.021C589.452 506.037 590.738 503.586 591.312 500.929C591.897 498.276 593.063 495.784 594.725 493.633C598.667 489.269 605.698 489.866 610.954 487.207C618.702 483.303 622.354 472.478 630.972 471.404C637.235 470.62 642.525 475.529 648.037 478.478C654.164 481.717 661.348 482.774 667.202 486.491C671.07 489.215 674.475 492.542 677.287 496.344C680.836 500.348 683.748 504.873 685.922 509.76C686.986 512.214 687.543 514.857 687.56 517.531C687.578 520.205 687.056 522.856 686.025 525.324C683.072 531.563 676.11 535.074 669.249 536.2C662.389 537.325 655.375 536.558 648.43 536.694C639.3 536.878 630.27 538.637 621.74 541.893C621.543 542.718 621.677 543.587 622.114 544.313C622.551 545.04 623.256 545.567 624.078 545.78V543.956C626.108 545.166 625.682 548.013 624.385 549.957C622.904 551.811 620.863 553.139 618.566 553.741C614.589 555.122 610.169 555.889 606.262 554.406C604.128 553.47 602.162 552.192 600.442 550.621C592.184 543.694 584.818 535.769 578.513 527.028C576.397 524.079 574.332 520.857 574.128 517.226C573.923 513.595 576.517 508.788 580.22 508.379Z" fill="#6A1A16"/>
<path d="M651.092 557.713C650.974 561.543 651.8 565.342 653.498 568.777C655.402 571.607 657.829 574.049 660.649 575.971C666.084 580.441 671.916 584.407 678.072 587.818C680.708 588.98 683.209 590.426 685.53 592.131C687.593 594.043 689.369 596.242 690.803 598.66C692.904 601.522 694.55 604.69 695.684 608.053C696.255 610.409 696.547 612.823 696.554 615.247C696.827 623.77 696.315 632.294 697.561 640.647C697.839 641.94 697.931 643.266 697.834 644.585C697.407 647.994 694.336 650.807 694.574 654.216L698.534 654.728C699.887 654.983 701.276 654.983 702.629 654.728C703.303 654.594 703.926 654.274 704.427 653.804C704.928 653.334 705.287 652.732 705.462 652.068C705.735 650.5 704.592 648.898 705.001 647.363C705.411 645.829 707.049 645.096 707.834 643.784C708.222 642.918 708.374 641.966 708.275 641.023C708.176 640.08 707.83 639.18 707.271 638.414C706.281 636.794 704.899 635.431 704.046 633.726C703.082 631.349 702.674 628.784 702.851 626.225C702.851 619.838 702.811 613.44 702.732 607.03C702.907 603.667 702.497 600.299 701.52 597.075C700.424 594.597 699.134 592.208 697.663 589.932C690.837 577.607 692.066 562.572 689.881 548.644C688.977 542.78 687.305 536.831 683.482 532.279C679.659 527.728 673.243 524.898 667.577 526.688C663.919 528.117 660.75 530.567 658.447 533.745C656.007 536.677 652.577 540.343 651.621 544.093C650.444 548.286 650.956 553.52 651.092 557.713Z" fill="#6A1A16"/>
<path d="M646.433 436.851C646.632 437.297 646.938 437.687 647.326 437.984C647.713 438.282 648.169 438.478 648.652 438.556C650.075 438.603 651.473 438.177 652.628 437.345C654.958 435.968 657.064 434.243 658.874 432.231C659.793 431.215 660.462 429.999 660.829 428.679C661.197 427.359 661.252 425.973 660.99 424.628C660.884 424.237 660.671 423.883 660.376 423.605C659.771 423.27 659.087 423.105 658.396 423.128C656.59 422.671 654.839 422.02 653.174 421.185C650.119 420.145 645.204 420.571 644.539 424.338C644.133 427.135 644.348 429.987 645.17 432.691C645.44 434.119 645.863 435.514 646.433 436.851Z" fill="#6A1A16"/>
<path d="M639.027 442.903C638.188 443.535 637.466 444.308 636.894 445.187C636.517 445.925 636.242 446.711 636.075 447.522C634.436 454.08 632.804 460.637 631.177 467.195C630.476 469.348 630.232 471.624 630.46 473.877C630.788 475.329 631.365 476.713 632.167 477.968C634.216 481.586 636.938 484.78 640.187 487.378C648.839 494.299 660.358 496.379 671.4 497.743C672.093 497.899 672.818 497.846 673.482 497.589C674.111 497.186 674.591 496.587 674.847 495.885C682.18 480.869 683.332 463.581 678.055 447.727C677.539 445.891 676.644 444.184 675.427 442.715C674.202 441.546 672.81 440.563 671.297 439.8C667.337 437.5 663.64 434.773 660.273 431.669C657.031 428.685 652.901 430.322 650.034 433.101C646.467 436.527 642.798 439.715 639.027 442.903Z" fill="#6A1A16"/>
<path d="M642.918 424.865C644.203 425.46 645.65 425.61 647.03 425.291L653.362 424.541C655.7 424.268 658.481 424.2 659.864 426.126C660.393 426.876 660.973 428.035 661.843 427.729C662.09 427.615 662.298 427.431 662.44 427.2C662.835 426.748 663.133 426.22 663.315 425.648C663.497 425.076 663.559 424.473 663.498 423.876C663.198 422.814 662.607 421.858 661.792 421.114C659.198 418.148 656.45 415.114 652.798 413.597C649.573 412.25 645.239 412.403 642.679 415.012C640.597 417.159 639.948 423.041 642.918 424.865Z" fill="#6A1A16"/>
<path d="M630.375 466.206C629.535 467.179 628.394 467.845 627.132 468.098C626.087 468.054 625.055 467.841 624.078 467.467C623.587 467.287 623.055 467.251 622.544 467.363C622.033 467.474 621.564 467.729 621.194 468.098C620.972 468.388 620.852 468.763 620.613 469.052C620.227 469.379 619.803 469.66 619.351 469.888C618.947 470.189 618.615 470.577 618.379 471.022C618.143 471.467 618.008 471.959 617.985 472.462C617.948 473.467 618.057 474.472 618.31 475.445C618.372 475.912 618.547 476.357 618.822 476.741C619.124 477.062 619.507 477.297 619.931 477.423C621.428 478.037 622.961 478.56 624.521 478.991C624.907 479.139 625.326 479.181 625.733 479.11C626.163 478.947 626.536 478.662 626.808 478.292C627.955 476.584 629.494 475.176 631.296 474.184C632.32 473.774 633.532 473.638 634.249 472.82C634.748 472.159 635.033 471.362 635.068 470.536C635.317 469.267 635.38 467.969 635.255 466.683C635.136 465.899 634.59 463.938 633.549 463.751C632.508 463.563 631.092 465.524 630.375 466.206Z" fill="#6A1A16"/>
<path d="M-67.7151 718.604C-37.5437 705.256 392.502 618.521 547.028 648.541C701.554 678.56 798.98 595.167 956.868 575.239C1114.76 555.311 1404.87 605.258 1404.87 605.258L1381.18 848.706L-67.6639 825.352L-67.7151 718.604Z" fill="#6A1A16"/>
<path d="M122.085 650.724C122.085 647.468 104.934 511.143 80.4111 462.457C80.4111 462.457 126.982 563.034 134.337 650.724H122.085Z" fill="#4A0E0A"/>
<path d="M123.723 471.387C123.723 471.387 101.658 511.959 107.375 550.894L114.73 563.867C114.73 563.867 109.832 517.635 123.723 471.387Z" fill="#4A0E0A"/>
<path d="M46.9128 507.085C44.4895 505.381 91.8628 512.779 114.73 568.761V589.047C114.73 589.047 100.02 543.6 46.9128 507.085Z" fill="#4A0E0A"/>
<path d="M123.724 650.718C125.43 646.661 126.983 572.813 213.607 537.918C213.607 537.918 134.338 580.109 134.338 650.718H123.724Z" fill="#4A0E0A"/>
<path d="M207.071 563.887C207.071 563.887 167.036 572.206 151.882 589.048L147.786 601.305C147.786 601.305 163.35 576.058 207.071 563.887Z" fill="#4A0E0A"/>
<path d="M145.056 529.809C145.056 529.809 165.534 554.97 155.721 589.047C145.909 623.124 153.588 585.314 153.81 587.172C154.032 589.03 147.906 594.314 147.906 594.314C147.906 594.314 162.94 561.857 145.056 529.809Z" fill="#4A0E0A"/>
<path d="M35.8369 554.152C63.4138 585.394 94.5533 613.308 128.621 637.325L124.696 644.808C124.696 644.808 60.3939 591.894 35.8369 554.152Z" fill="#4A0E0A"/>
<path d="M33.8408 582.598C33.8408 582.598 47.8514 594.531 88.9617 606.463L93.0744 613.777C93.0744 613.777 50.5989 600.497 33.8408 582.598Z" fill="#4A0E0A"/>
<path d="M89.405 576.468C88.3811 575.428 101.658 598.373 100.839 620.295C100.839 620.295 106.146 629.211 107.375 627.592C108.603 625.972 108.194 595.543 89.405 576.468Z" fill="#4A0E0A"/>
<path d="M134.339 545.238C134.339 545.238 115.328 566.854 120.857 601.306L123.724 609.335C123.724 609.335 118.417 580.526 134.339 545.238Z" fill="#4A0E0A"/>
<path d="M128.62 637.325C128.62 637.325 189.629 610.681 236.473 569.035C236.473 569.035 183.093 618.267 128.62 642.064V637.325Z" fill="#4A0E0A"/>
<path d="M222.856 616.098C222.856 616.098 200.791 610.387 168.657 620.479L158.315 626.769C158.315 626.769 188.538 612.262 222.856 616.098Z" fill="#4A0E0A"/>
<path d="M190.585 582.602C190.422 591.022 188.51 599.318 184.971 606.962L178.947 613.78C184.665 604.168 188.607 593.607 190.585 582.602Z" fill="#4A0E0A"/>
<path d="M-37.5437 678.56C-37.5437 678.56 160.653 618.521 254.716 628.527C348.78 638.534 510.03 725.269 688.072 728.61C866.115 731.951 962.994 637.409 1121.43 677.998C1279.86 718.587 1448.18 801.997 1448.18 801.997L1423.02 888.732H-37.5437V678.56Z" fill="#4A0E0A"/>
<path d="M1156.11 603.738C1156.11 603.738 1215.24 656.26 1229.23 711.612L1213.53 727.721C1213.53 727.721 1210.1 667.954 1156.11 603.738Z" fill="#4A0E0A"/>
<path d="M1213.99 584.988C1213.99 584.988 1245.41 657.353 1234.66 713.403L1213.6 721.364C1213.6 721.364 1235.75 665.825 1213.99 584.988Z" fill="#4A0E0A"/>
<path d="M1254.64 585.789C1254.64 585.789 1265.08 663.898 1239.4 714.954L1216.93 717.017C1216.93 717.017 1253.45 669.507 1254.64 585.789Z" fill="#4A0E0A"/>
<path d="M1333.52 642.539C1333.52 642.539 1257.37 664.7 1220.77 708.681L1227.95 729.888C1227.95 729.888 1256.91 677.519 1333.52 642.539Z" fill="#4A0E0A"/>
<path d="M1352.68 682.735C1352.68 682.735 1273.39 679.786 1224.69 710.01V732.427C1224.69 732.427 1268.87 691.804 1352.68 682.735Z" fill="#4A0E0A"/>
<path d="M1359.93 725.846C1359.93 725.846 1284.85 700.446 1229.38 715.515L1222.95 736.994C1222.95 736.994 1277 710.691 1359.93 725.846Z" fill="#4A0E0A"/>
<path d="M1114.65 639.402C1114.65 639.402 1189.84 664.564 1224.64 709.977L1216.6 730.928C1216.6 730.928 1189.77 677.4 1114.65 639.402Z" fill="#4A0E0A"/>
<path d="M1110.23 681.133C1110.23 681.133 1185.01 694.43 1197.27 728.353L1241.5 743.218C1241.5 743.218 1274.76 724.024 1334.76 751.52C1334.76 751.52 1283.57 723.018 1233.94 725.49C1233.91 725.49 1161.69 674.877 1110.23 681.133Z" fill="#4A0E0A"/>
<path d="M886.269 486.388C886.806 486.23 887.37 486.185 887.925 486.255C888.48 486.325 889.015 486.509 889.496 486.796C889.977 487.082 890.393 487.465 890.719 487.92C891.044 488.375 891.272 488.892 891.388 489.439C892.569 495.719 893.35 502.068 893.726 508.446L890.774 509.299C888.025 503.54 885.615 497.626 883.555 491.587C883.377 491.068 883.306 490.518 883.346 489.971C883.387 489.424 883.539 488.891 883.793 488.405C884.047 487.918 884.398 487.488 884.823 487.142C885.249 486.795 885.741 486.538 886.269 486.388Z" fill="#CE6C5D"/>
<path d="M880.279 494.399C880.782 494.256 881.32 494.3 881.794 494.522C882.268 494.745 882.645 495.131 882.856 495.609C883.182 496.682 883.871 497.608 884.804 498.23C885.738 498.852 886.859 499.13 887.975 499.019L888.436 500.57C886.773 501.241 884.927 501.306 883.22 500.754C881.514 500.203 880.056 499.07 879.101 497.553C878.93 497.276 878.825 496.965 878.793 496.642C878.761 496.318 878.804 495.992 878.917 495.688C879.031 495.384 879.213 495.109 879.449 494.886C879.685 494.663 879.969 494.496 880.279 494.399Z" fill="#CE6C5D"/>
</g>
<defs>
<linearGradient id="paint0_linear_792_355" x1="639.948" y1="595.166" x2="639.948" y2="234.639" gradientUnits="userSpaceOnUse">
<stop stop-color="#FDD897"/>
<stop offset="1" stop-color="#FDD897" stop-opacity="0"/>
</linearGradient>
<linearGradient id="paint1_linear_792_355" x1="886.542" y1="164.678" x2="996.964" y2="253.438" gradientUnits="userSpaceOnUse">
<stop stop-color="white"/>
<stop offset="1" stop-color="white" stop-opacity="0"/>
</linearGradient>
<linearGradient id="paint2_linear_792_355" x1="913.761" y1="233.413" x2="1004.04" y2="348.335" gradientUnits="userSpaceOnUse">
<stop stop-color="white"/>
<stop offset="1" stop-color="white" stop-opacity="0"/>
</linearGradient>
<linearGradient id="paint3_linear_792_355" x1="1098.85" y1="219.21" x2="1155.59" y2="347.823" gradientUnits="userSpaceOnUse">
<stop stop-color="white"/>
<stop offset="1" stop-color="white" stop-opacity="0"/>
</linearGradient>
<linearGradient id="paint4_linear_792_355" x1="353.9" y1="163.722" x2="238.702" y2="324.149" gradientUnits="userSpaceOnUse">
<stop stop-color="white"/>
<stop offset="1" stop-color="white" stop-opacity="0"/>
</linearGradient>
<linearGradient id="paint5_linear_792_355" x1="267.328" y1="254.909" x2="197.667" y2="392.709" gradientUnits="userSpaceOnUse">
<stop stop-color="white"/>
<stop offset="1" stop-color="white" stop-opacity="0"/>
</linearGradient>
<linearGradient id="paint6_linear_792_355" x1="207.667" y1="326.436" x2="122.592" y2="505.108" gradientUnits="userSpaceOnUse">
<stop stop-color="white"/>
<stop offset="1" stop-color="white" stop-opacity="0"/>
</linearGradient>
<linearGradient id="paint7_linear_792_355" x1="1173.9" y1="528.596" x2="1173.9" y2="371.372" gradientUnits="userSpaceOnUse">
<stop stop-color="white"/>
<stop offset="1" stop-color="white" stop-opacity="0"/>
</linearGradient>
<linearGradient id="paint8_linear_792_355" x1="213.026" y1="604.063" x2="213.026" y2="492.406" gradientUnits="userSpaceOnUse">
<stop stop-color="white"/>
<stop offset="1" stop-color="white" stop-opacity="0"/>
</linearGradient>
</defs>
</svg>
