<svg width="18" height="21" viewBox="0 0 18 21" fill="none" xmlns="http://www.w3.org/2000/svg">
<path d="M7 18C7 18.5304 7.21071 19.0391 7.58579 19.4142C7.96086 19.7893 8.46957 20 9 20C9.53043 20 10.0391 19.7893 10.4142 19.4142C10.7893 19.0391 11 18.5304 11 18M7 18C7 17.4696 7.21071 16.9609 7.58579 16.5858C7.96086 16.2107 8.46957 16 9 16C9.53043 16 10.0391 16.2107 10.4142 16.5858C10.7893 16.9609 11 17.4696 11 18M7 18H1M11 18H17M9 13L7 11H4C3.73478 11 3.48043 10.8946 3.29289 10.7071C3.10536 10.5196 3 10.2652 3 10V2C3 1.73478 3.10536 1.48043 3.29289 1.29289C3.48043 1.10536 3.73478 1 4 1H14C14.2652 1 14.5196 1.10536 14.7071 1.29289C14.8946 1.48043 15 1.73478 15 2V10C15 10.2652 14.8946 10.5196 14.7071 10.7071C14.5196 10.8946 14.2652 11 14 11H11L9 13Z" stroke="#B3B3B3" stroke-width="2" stroke-linecap="round" stroke-linejoin="round"/>
</svg>
