<svg width="17" height="12" viewBox="0 0 17 12" fill="none" xmlns="http://www.w3.org/2000/svg">
<path d="M16.1 10.0516V1.95156C16.1 1.20456 15.497 0.601562 14.75 0.601562H2.14102C1.39402 0.601562 0.791016 1.20456 0.791016 1.95156V10.0516C0.791016 10.7986 1.39402 11.4016 2.14102 11.4016H14.75C15.497 11.4016 16.1 10.7986 16.1 10.0516ZM14.921 1.85256C15.218 2.14956 15.056 2.45556 14.894 2.60856L11.24 5.95656L14.75 9.61056C14.858 9.73656 14.93 9.93456 14.804 10.0696C14.687 10.2136 14.417 10.2046 14.3 10.1146L10.367 6.75756L8.44102 8.51256L6.52402 6.75756L2.59102 10.1146C2.47402 10.2046 2.20402 10.2136 2.08702 10.0696C1.96102 9.93456 2.03302 9.73656 2.14102 9.61056L5.65102 5.95656L1.99702 2.60856C1.83502 2.45556 1.67302 2.14956 1.97002 1.85256C2.26702 1.55556 2.57302 1.69956 2.82502 1.91556L8.44102 6.45156L14.066 1.91556C14.318 1.69956 14.624 1.55556 14.921 1.85256Z" fill="#0E75EC"/>
</svg>
