<svg width="12" height="12" viewBox="0 0 12 12" fill="none" xmlns="http://www.w3.org/2000/svg">
<path d="M10.82 8.17448L9.12669 7.98115C8.92759 7.95776 8.72577 7.9798 8.5364 8.04562C8.34703 8.11144 8.17505 8.21931 8.03336 8.36115L6.80669 9.58781C4.91415 8.62529 3.37588 7.08702 2.41336 5.19448L3.64669 3.96115C3.93336 3.67448 4.07336 3.27448 4.02669 2.86781L3.83336 1.18781C3.79556 0.862597 3.63949 0.562637 3.39485 0.345045C3.15021 0.127452 2.8341 0.00742433 2.50669 0.00781344H1.35336C0.600027 0.00781344 -0.0266396 0.63448 0.0200271 1.38781C0.37336 7.08115 4.92669 11.6278 10.6134 11.9811C11.3667 12.0278 11.9934 11.4011 11.9934 10.6478V9.49448C12 8.82115 11.4934 8.25448 10.82 8.17448Z" fill="#0E75EC"/>
</svg>
