<svg width="16" height="16" viewBox="0 0 16 16" fill="none" xmlns="http://www.w3.org/2000/svg">
<path d="M10.1927 9.78627C10.0948 9.75427 9.47634 9.4755 9.86281 8.30073H9.85727C10.8647 7.26319 11.6345 5.59366 11.6345 3.94996C11.6345 1.42258 9.95388 0.0976562 8.00065 0.0976562C6.04619 0.0976562 4.37481 1.42196 4.37481 3.94996C4.37481 5.60042 5.14034 7.27673 6.15388 8.31181C6.54896 9.34812 5.8425 9.73273 5.69481 9.78689C3.64927 10.5266 1.24927 11.8749 1.24927 13.206V13.705C1.24927 15.5186 4.76557 15.9309 8.01973 15.9309C11.2788 15.9309 14.7508 15.5186 14.7508 13.705V13.206C14.7508 11.8349 12.3391 10.497 10.1927 9.78627Z" fill="#0E75EC"/>
</svg>
