<svg width="35" height="35" viewBox="0 0 35 35" fill="none" xmlns="http://www.w3.org/2000/svg">
<path id="Vector" d="M5.4485 34.248H2.83312C2.31289 34.248 1.81396 34.0689 1.4461 33.7501C1.07824 33.4313 0.871582 32.9989 0.871582 32.548V22.348C0.871582 21.8972 1.07824 21.4648 1.4461 21.146C1.81396 20.8272 2.31289 20.648 2.83312 20.648H5.4485C5.96874 20.648 6.46766 20.8272 6.83552 21.146C7.20338 21.4648 7.41004 21.8972 7.41004 22.348V32.548C7.41004 32.9989 7.20338 33.4313 6.83552 33.7501C6.46766 34.0689 5.96874 34.248 5.4485 34.248ZM23.7562 34.248H21.1408C20.6206 34.248 20.1217 34.0689 19.7538 33.7501C19.3859 33.4313 19.1793 32.9989 19.1793 32.548V15.548C19.1793 15.0972 19.3859 14.6648 19.7538 14.346C20.1217 14.0272 20.6206 13.848 21.1408 13.848H23.7562C24.2764 13.848 24.7754 14.0272 25.1432 14.346C25.5111 14.6648 25.7177 15.0972 25.7177 15.548V32.548C25.7177 32.9989 25.5111 33.4313 25.1432 33.7501C24.7754 34.0689 24.2764 34.248 23.7562 34.248ZM32.91 34.248H30.2947C29.7744 34.248 29.2755 34.0689 28.9076 33.7501C28.5398 33.4313 28.3331 32.9989 28.3331 32.548V7.61471C28.3331 7.16385 28.5398 6.73144 28.9076 6.41263C29.2755 6.09382 29.7744 5.91471 30.2947 5.91471H32.91C33.4303 5.91471 33.9292 6.09382 34.2971 6.41263C34.6649 6.73144 34.8716 7.16385 34.8716 7.61471V32.548C34.8716 32.9989 34.6649 33.4313 34.2971 33.7501C33.9292 34.0689 33.4303 34.248 32.91 34.248ZM14.6024 34.248H11.987C11.4667 34.248 10.9678 34.0689 10.5999 33.7501C10.2321 33.4313 10.0254 32.9989 10.0254 32.548V1.94805C10.0254 1.49718 10.2321 1.06478 10.5999 0.745965C10.9678 0.427154 11.4667 0.248047 11.987 0.248047H14.6024C15.1226 0.248047 15.6215 0.427154 15.9894 0.745965C16.3572 1.06478 16.5639 1.49718 16.5639 1.94805V32.548C16.5639 32.9989 16.3572 33.4313 15.9894 33.7501C15.6215 34.0689 15.1226 34.248 14.6024 34.248Z" fill="white"/>
</svg>
