<svg width="35" height="35" viewBox="0 0 35 35" fill="none" xmlns="http://www.w3.org/2000/svg">
<g id="Group 166">
<path id="Vector" d="M17.8716 34.248C8.49788 34.248 0.871582 26.6217 0.871582 17.248C0.871582 7.87434 8.49788 0.248047 17.8716 0.248047C27.2453 0.248047 34.8716 7.87434 34.8716 17.248C34.8716 26.6217 27.2453 34.248 17.8716 34.248ZM17.8716 2.86343C9.9437 2.86343 3.48697 9.32016 3.48697 17.248C3.48697 25.1759 9.9437 31.6327 17.8716 31.6327C25.7995 31.6327 32.2562 25.18 32.2562 17.248C32.2562 9.31608 25.8036 2.86343 17.8716 2.86343Z" fill="#463000"/>
<path id="Vector_2" d="M23.4023 20.1899C21.9802 20.1899 20.6063 19.5589 19.5332 18.4139C18.4717 17.2626 17.8371 15.7821 17.7351 14.2195C17.615 12.5276 18.134 10.9707 19.1965 9.83707C20.259 8.70346 21.744 8.09375 23.4023 8.09375C25.0484 8.09375 26.5383 8.71654 27.5976 9.84769C28.6568 10.9788 29.1889 12.5448 29.0687 14.2211C28.9648 15.7828 28.3304 17.2621 27.2706 18.4139C26.1967 19.5589 24.8236 20.1899 23.4023 20.1899ZM10.3377 20.4645C7.90535 20.4645 5.76646 18.2161 5.57031 15.452C5.46978 14.0364 5.90949 12.7279 6.81016 11.7675C7.71084 10.8072 8.95314 10.2964 10.3368 10.2964C11.7205 10.2964 12.962 10.8227 13.857 11.779C14.7519 12.7352 15.2055 14.0527 15.1034 15.4569C14.904 18.2169 12.7659 20.4645 10.3377 20.4645ZM31.3057 25.3618C31.1757 24.9777 30.8594 24.5682 30.2252 24.18C28.3078 23.0088 25.9491 22.3893 23.4023 22.3893C20.9038 22.3893 18.4797 23.035 16.5754 24.2078C14.4299 25.5294 12.9882 27.4566 12.4071 29.7802C12.2698 30.327 12.0695 31.3445 12.2837 31.9142C15.72 33.2209 19.5059 33.2809 22.9819 32.0836C26.4579 30.8863 29.4038 28.5076 31.3065 25.3618H31.3057ZM10.3221 29.1288C10.9 26.8232 12.13 24.9009 14.0384 23.3463C14.1287 23.2719 14.1973 23.1746 14.2371 23.0647C14.2769 22.9547 14.2865 22.8361 14.2649 22.7211C14.2433 22.6062 14.1912 22.4991 14.1142 22.4112C14.0371 22.3232 13.9378 22.2575 13.8267 22.2209C12.846 21.9079 11.7263 21.7403 10.3377 21.7403C8.39084 21.7403 6.32386 22.2675 4.76853 23.2254C4.32718 23.4975 3.89401 23.6022 3.56055 23.6953C4.89936 26.6543 7.11959 29.1275 9.91757 30.7765L10.0639 30.765C10.0959 30.2125 10.1824 29.6644 10.3221 29.1288Z" fill="#463000"/>
</g>
</svg>
