<svg width="35" height="35" viewBox="0 0 35 35" fill="none" xmlns="http://www.w3.org/2000/svg">
<path id="Vector" d="M28.6747 22.7968C27.0588 22.7963 25.5069 23.381 24.352 24.4253L13.0941 18.577C13.3255 17.695 13.3255 16.7746 13.0941 15.8925L24.3485 10.0442C25.3999 10.9892 26.781 11.5575 28.2445 11.6474C29.708 11.7374 31.1584 11.3431 32.336 10.5352C33.5136 9.72728 34.3416 8.55846 34.6716 7.23798C35.0017 5.91751 34.8123 4.5316 34.1373 3.32838C33.4624 2.12516 32.346 1.18318 30.988 0.671086C29.63 0.158992 28.119 0.110218 26.7256 0.533497C25.3322 0.956776 24.1474 1.82447 23.3832 2.98124C22.619 4.138 22.3254 5.50832 22.5549 6.84686L11.035 12.8342C10.1302 12.1377 9.02923 11.6938 7.86115 11.5546C6.69307 11.4153 5.50624 11.5866 4.43971 12.0482C3.37317 12.5098 2.47109 13.2427 1.83915 14.161C1.20721 15.0793 0.871582 16.1449 0.871582 17.2331C0.871582 18.3213 1.20721 19.387 1.83915 20.3053C2.47109 21.2236 3.37317 21.9565 4.43971 22.4181C5.50624 22.8797 6.69307 23.0509 7.86115 22.9117C9.02923 22.7725 10.1302 22.3286 11.035 21.632L22.5549 27.6227C22.3558 28.7791 22.5451 29.964 23.0975 31.0179C23.6498 32.0718 24.5386 32.9438 25.644 33.5165C26.7493 34.0892 28.0182 34.335 29.2794 34.2207C30.5406 34.1065 31.7336 33.6377 32.6976 32.8775C33.6615 32.1174 34.3501 31.1025 34.6704 29.9696C34.9907 28.8367 34.9274 27.6403 34.4889 26.5416C34.0505 25.443 33.2581 24.495 32.2185 23.8254C31.1788 23.1558 29.942 22.7968 28.6747 22.7968Z" fill="white"/>
</svg>
