<svg width="374" height="44" viewBox="0 0 374 44" fill="none" xmlns="http://www.w3.org/2000/svg">
<path d="M13.0281 12C14.1531 12.003 14.7241 12.009 15.2171 12.023L15.4111 12.03C15.6351 12.038 15.8561 12.048 16.1231 12.06C17.1871 12.11 17.9131 12.278 18.5501 12.525C19.2101 12.779 19.7661 13.123 20.3221 13.678C20.8306 14.1779 21.224 14.7826 21.4751 15.45C21.7221 16.087 21.8901 16.813 21.9401 17.878C21.9521 18.144 21.9621 18.365 21.9701 18.59L21.9761 18.784C21.9911 19.276 21.9971 19.847 21.9991 20.972L22.0001 21.718V23.028C22.0025 23.7574 21.9949 24.4868 21.9771 25.216L21.9711 25.41C21.9631 25.635 21.9531 25.856 21.9411 26.122C21.8911 27.187 21.7211 27.912 21.4751 28.55C21.2248 29.2178 20.8312 29.8226 20.3221 30.322C19.8221 30.8303 19.2174 31.2238 18.5501 31.475C17.9131 31.722 17.1871 31.89 16.1231 31.94C15.8858 31.9512 15.6485 31.9612 15.4111 31.97L15.2171 31.976C14.7241 31.99 14.1531 31.997 13.0281 31.999L12.2821 32H10.9731C10.2434 32.0025 9.51361 31.9949 8.78409 31.977L8.59009 31.971C8.3527 31.962 8.11536 31.9517 7.87809 31.94C6.81409 31.89 6.08809 31.722 5.45009 31.475C4.78276 31.2244 4.17831 30.8309 3.67909 30.322C3.17013 29.8223 2.77631 29.2176 2.52509 28.55C2.27809 27.913 2.11009 27.187 2.06009 26.122C2.04895 25.8847 2.03895 25.6474 2.03009 25.41L2.02509 25.216C2.00666 24.4868 1.99833 23.7574 2.00009 23.028V20.972C1.9973 20.2426 2.00463 19.5132 2.02209 18.784L2.02909 18.59C2.03709 18.365 2.04709 18.144 2.05909 17.878C2.10909 16.813 2.27709 16.088 2.52409 15.45C2.7752 14.7819 3.16981 14.177 3.68009 13.678C4.17918 13.1695 4.78323 12.776 5.45009 12.525C6.08809 12.278 6.81309 12.11 7.87809 12.06C8.14409 12.048 8.36609 12.038 8.59009 12.03L8.78409 12.024C9.51328 12.0062 10.2427 11.9986 10.9721 12.001L13.0281 12ZM12.0001 17C10.674 17 9.40224 17.5268 8.46455 18.4645C7.52687 19.4021 7.00009 20.6739 7.00009 22C7.00009 23.3261 7.52687 24.5979 8.46455 25.5355C9.40224 26.4732 10.674 27 12.0001 27C13.3262 27 14.5979 26.4732 15.5356 25.5355C16.4733 24.5979 17.0001 23.3261 17.0001 22C17.0001 20.6739 16.4733 19.4021 15.5356 18.4645C14.5979 17.5268 13.3262 17 12.0001 17ZM12.0001 19C12.3941 18.9999 12.7842 19.0775 13.1482 19.2282C13.5122 19.3789 13.8429 19.5998 14.1216 19.8783C14.4002 20.1569 14.6212 20.4875 14.772 20.8515C14.9229 21.2154 15.0005 21.6055 15.0006 21.9995C15.0007 22.3935 14.9231 22.7836 14.7724 23.1476C14.6217 23.5116 14.4008 23.8423 14.1223 24.121C13.8437 24.3996 13.5131 24.6206 13.1491 24.7714C12.7851 24.9223 12.3951 24.9999 12.0011 25C11.2054 25 10.4424 24.6839 9.87977 24.1213C9.31716 23.5587 9.00109 22.7957 9.00109 22C9.00109 21.2044 9.31716 20.4413 9.87977 19.8787C10.4424 19.3161 11.2054 19 12.0011 19M17.2511 15.5C16.9196 15.5 16.6016 15.6317 16.3672 15.8661C16.1328 16.1005 16.0011 16.4185 16.0011 16.75C16.0011 17.0815 16.1328 17.3995 16.3672 17.6339C16.6016 17.8683 16.9196 18 17.2511 18C17.5826 18 17.9006 17.8683 18.135 17.6339C18.3694 17.3995 18.5011 17.0815 18.5011 16.75C18.5011 16.4185 18.3694 16.1005 18.135 15.8661C17.9006 15.6317 17.5826 15.5 17.2511 15.5Z" fill="#E1E1E1"/>
<path d="M70 22C70 16.48 65.52 12 60 12C54.48 12 50 16.48 50 22C50 26.84 53.44 30.87 58 31.8V25H56V22H58V19.5C58 17.57 59.57 16 61.5 16H64V19H62C61.45 19 61 19.45 61 20V22H64V25H61V31.95C66.05 31.45 70 27.19 70 22Z" fill="#E1E1E1"/>
<path d="M115 13C115.53 13 116.039 13.2107 116.414 13.5858C116.789 13.9609 117 14.4696 117 15V29C117 29.5304 116.789 30.0391 116.414 30.4142C116.039 30.7893 115.53 31 115 31H101C100.47 31 99.9609 30.7893 99.5858 30.4142C99.2107 30.0391 99 29.5304 99 29V15C99 14.4696 99.2107 13.9609 99.5858 13.5858C99.9609 13.2107 100.47 13 101 13H115ZM114.5 28.5V23.2C114.5 22.3354 114.157 21.5062 113.545 20.8948C112.934 20.2835 112.105 19.94 111.24 19.94C110.39 19.94 109.4 20.46 108.92 21.24V20.13H106.13V28.5H108.92V23.57C108.92 22.8 109.54 22.17 110.31 22.17C110.681 22.17 111.037 22.3175 111.3 22.5801C111.563 22.8426 111.71 23.1987 111.71 23.57V28.5H114.5ZM102.88 18.56C103.326 18.56 103.753 18.383 104.068 18.0679C104.383 17.7529 104.56 17.3256 104.56 16.88C104.56 15.95 103.81 15.19 102.88 15.19C102.432 15.19 102.002 15.3681 101.685 15.685C101.368 16.0019 101.19 16.4318 101.19 16.88C101.19 17.81 101.95 18.56 102.88 18.56ZM104.27 28.5V20.13H101.5V28.5H104.27Z" fill="#E1E1E1"/>
<g clip-path="url(#clip0_29_6740)">
<path fill-rule="evenodd" clip-rule="evenodd" d="M156 14C156.855 14 157.732 14.022 158.582 14.058L159.586 14.106L160.547 14.163L161.447 14.224L162.269 14.288C163.161 14.3563 164 14.7369 164.64 15.363C165.279 15.9891 165.676 16.8205 165.763 17.711L165.803 18.136L165.878 19.046C165.948 19.989 166 21.017 166 22C166 22.983 165.948 24.011 165.878 24.954L165.803 25.864C165.79 26.01 165.777 26.151 165.763 26.289C165.676 27.1796 165.278 28.0112 164.639 28.6373C164 29.2634 163.16 29.6439 162.268 29.712L161.448 29.775L160.548 29.837L159.586 29.894L158.582 29.942C157.722 29.9794 156.861 29.9987 156 30C155.139 29.9987 154.278 29.9794 153.418 29.942L152.414 29.894L151.453 29.837L150.553 29.775L149.731 29.712C148.839 29.6437 148 29.2631 147.36 28.637C146.721 28.0109 146.324 27.1795 146.237 26.289L146.197 25.864L146.122 24.954C146.046 23.9711 146.005 22.9858 146 22C146 21.017 146.052 19.989 146.122 19.046L146.197 18.136C146.21 17.99 146.223 17.849 146.237 17.711C146.324 16.8207 146.721 15.9894 147.36 15.3633C147.999 14.7373 148.838 14.3565 149.73 14.288L150.551 14.224L151.451 14.163L152.413 14.106L153.417 14.058C154.278 14.0206 155.139 14.0013 156 14ZM154 19.575V24.425C154 24.887 154.5 25.175 154.9 24.945L159.1 22.52C159.191 22.4674 159.267 22.3916 159.32 22.3003C159.373 22.209 159.401 22.1055 159.401 22C159.401 21.8945 159.373 21.791 159.32 21.6997C159.267 21.6084 159.191 21.5326 159.1 21.48L154.9 19.056C154.809 19.0033 154.705 18.9756 154.6 18.9756C154.495 18.9756 154.391 19.0034 154.3 19.0561C154.209 19.1088 154.133 19.1846 154.08 19.2759C154.028 19.3671 154 19.4706 154 19.576" fill="#E1E1E1"/>
</g>
<path d="M205.613 28H203.895L201.297 25.4121V17.6289L203.895 15.041H205.613V28ZM206.297 17.6289V15.041H210.896L213.484 17.6289V20.2363H209.168V17.6289H206.297ZM206.297 28V25.4121H209.168V23.5176H213.484V25.4121L210.896 28H206.297ZM226.99 25.4121L224.402 28H221.512V25.5781H222.586V20.2168H221.512V17.6289H224.402L226.99 20.2168V25.4121ZM219.705 25.5781H220.828V28H217.928L215.34 25.4121V20.2168L217.928 17.6289H220.828V20.2168H219.705V25.5781ZM228.943 28V17.6289H233.299V28H228.943ZM235.857 20.2168H234.002V19.084L235.447 17.6289H237.85L240.184 19.9629V28H235.857V20.2168ZM242.186 28V17.6289H246.541V28H242.186ZM249.1 20.2168H247.244V19.084L248.689 17.6289H251.092L253.426 19.9629V28H249.1V20.2168ZM259.656 28H257.928L255.34 25.4121V20.2168L257.928 17.6289H259.656V28ZM260.34 23.8398V22.0332H262.615V20.2168H260.34V17.6289H264.002L266.59 20.2168V23.8398H260.34ZM260.34 28V25.5781H266.141V26.7012L264.852 28H260.34ZM272.664 28H270.936L268.348 25.4121V20.2168L270.936 17.6289H272.664V28ZM273.348 20.2168V17.6289H276.99L279.578 20.2168V21.7695H275.262V20.2168H273.348ZM273.348 28V25.5781H275.262V24.2793H279.578V25.4121L276.99 28H273.348ZM285.799 25.4121H288.65V28H284.08L281.482 25.4121V20.2168H280.623V17.6289H281.482V16.5059L285.799 15.041V25.4121ZM286.482 20.2168V17.6289H288.807V20.2168H286.482ZM294.334 17.6289H298.455L300.145 23.0293L301.346 19.2891L302.898 24.0645L301.668 28.0098L301.658 28H298.055L294.334 17.6289ZM301.404 17.6289H305.477L308.816 28H304.9L301.404 17.6289ZM309.246 27.3555L307.43 21.7695L308.592 17.6289H312.635L309.246 27.3555ZM313.523 17.6289H317.85V28H313.523V17.6289ZM313.523 13.5859H317.85V16.3398H313.523V13.5859ZM324.334 25.4121H327.186V28H322.615L320.018 25.4121V20.2168H319.158V17.6289H320.018V16.5059L324.334 15.041V25.4121ZM325.018 20.2168V17.6289H327.342V20.2168H325.018ZM328.846 13.6738H333.162V28H328.846V13.6738ZM335.75 20.2168H333.846V18.9082L335.115 17.6289H337.479L340.076 20.2168V28H335.75V20.2168ZM359.744 25.4121L357.156 28H353.826V25.4121H355.428V15.041H359.744V25.4121ZM351.551 25.4121H353.143V28H349.822L347.225 25.4121V15.041H351.551V25.4121ZM364.07 17.6289H365.799V21.291H370.721L372.967 23.5566V25.5781L370.555 28H368.65V24.084H363.982L361.736 21.9258V19.9531L364.07 17.6289ZM366.053 26.0957H367.967V28L363.523 27.9902L361.727 25.8613V25.0312H366.053V26.0957ZM368.65 19.5332H366.482V17.6289H371.072L372.615 19.1719V20.3438H368.65V19.5332Z" fill="#E1E1E1"/>
<defs>
<clipPath id="clip0_29_6740">
<rect width="24" height="24" fill="white" transform="translate(144 10)"/>
</clipPath>
</defs>
</svg>
