<svg width="207" height="110" viewBox="0 0 207 110" fill="none" xmlns="http://www.w3.org/2000/svg">
<g id="Sponsor Us">
<path id="Vector" d="M48.0572 109.596C74.5348 109.596 95.9991 85.0713 95.9991 54.8185C95.9991 24.5657 74.5348 0.0410156 48.0572 0.0410156C21.5796 0.0410156 0.115234 24.5657 0.115234 54.8185C0.115234 85.0713 21.5796 109.596 48.0572 109.596Z" fill="white"/>
<path id="Vector_2" d="M77.9542 68.6321V40.9109H94.435C89.0388 17.3693 70.2959 0 48 0C21.4904 0 0 24.5545 0 54.8438C0 85.1331 21.4904 109.688 48 109.688C70.3415 109.688 89.1175 92.2471 94.4696 68.631L77.9542 68.6321ZM47.4751 45.5444L34.1309 63.2859H47.4751V68.6321H27.2681V63.9985L40.6123 46.257H27.6864V40.9109H47.4775L47.4751 45.5444ZM71.5298 46.3359H58.3593V51.9594H71.5298V57.3862H58.3593V63.2075H71.5298V68.6343H53.0561V40.9109H71.5298V46.3359Z" fill="url(#paint0_linear_350_23422)"/>
<path id="Vector_3" d="M83.2793 46.3342V51.9577L95.9514 51.8684C95.8648 50.0144 95.6964 48.1666 95.4467 46.332L83.2793 46.3342Z" fill="url(#paint1_linear_350_23422)"/>
<path id="Vector_4" d="M83.2578 63.2076H95.4459C95.7069 61.2492 95.8753 59.276 95.9506 57.2969L83.2578 57.3862V63.2076Z" fill="url(#paint2_linear_350_23422)"/>
<path id="Vector_5" d="M101.394 40.9102H105.346L118.343 60.0769V40.9102H122.535V68.6308H118.965L105.587 48.9094V68.6308H101.393L101.394 40.9102Z" fill="url(#paint3_linear_350_23422)"/>
<path id="Vector_6" d="M128.602 40.9102H146.59V45.2647H132.865V52.4718H145.03V56.8307H132.865V64.2746H146.762V68.6308H128.602V40.9102Z" fill="url(#paint4_linear_350_23422)"/>
<path id="Vector_7" d="M149.777 40.9107H154.389L160.177 61.4665L166.138 40.834H169.741L175.702 61.4665L181.49 40.9107H185.962L177.505 68.8293H173.831L167.87 48.9099L161.908 68.8293H158.234L149.777 40.9107Z" fill="url(#paint5_linear_350_23422)"/>
<path id="Vector_8" d="M187.834 64.5947L190.399 61.1095C192.721 63.4068 195.043 64.7136 198.058 64.7136C200.693 64.7136 202.357 63.3273 202.357 61.2285V61.1495C202.357 59.1696 201.386 58.1001 196.88 56.9123C191.716 55.4871 188.805 53.744 188.805 48.6352V48.5568C188.805 43.8049 192.271 40.5176 197.088 40.5176C200.624 40.5176 203.431 41.7454 205.892 44.0027L203.604 47.6858C201.421 45.8221 199.239 44.8354 197.019 44.8354C194.524 44.8354 193.068 46.3006 193.068 48.1243V48.2038C193.068 50.3416 194.177 51.2926 198.821 52.56C203.951 53.9852 206.62 56.084 206.62 60.6781V60.757C206.62 65.9448 203.05 69.0342 197.955 69.0342C194.246 69.0298 190.746 67.5646 187.834 64.5947Z" fill="url(#paint6_linear_350_23422)"/>
</g>
<defs>
<linearGradient id="paint0_linear_350_23422" x1="0" y1="54.8438" x2="94.4696" y2="54.8438" gradientUnits="userSpaceOnUse">
<stop stop-color="#D0232A"/>
<stop offset="1" stop-color="#DF1F29"/>
</linearGradient>
<linearGradient id="paint1_linear_350_23422" x1="83.2793" y1="49.1463" x2="95.9514" y2="49.1463" gradientUnits="userSpaceOnUse">
<stop stop-color="#D0232A"/>
<stop offset="1" stop-color="#DF1F29"/>
</linearGradient>
<linearGradient id="paint2_linear_350_23422" x1="83.2578" y1="60.252" x2="95.9506" y2="60.252" gradientUnits="userSpaceOnUse">
<stop stop-color="#D0232A"/>
<stop offset="1" stop-color="#DF1F29"/>
</linearGradient>
<linearGradient id="paint3_linear_350_23422" x1="101.394" y1="54.7702" x2="122.537" y2="54.7702" gradientUnits="userSpaceOnUse">
<stop stop-color="#D0232A"/>
<stop offset="1" stop-color="#DF1F29"/>
</linearGradient>
<linearGradient id="paint4_linear_350_23422" x1="128.602" y1="54.7702" x2="146.763" y2="54.7702" gradientUnits="userSpaceOnUse">
<stop stop-color="#D0232A"/>
<stop offset="1" stop-color="#DF1F29"/>
</linearGradient>
<linearGradient id="paint5_linear_350_23422" x1="149.777" y1="54.8305" x2="185.962" y2="54.8305" gradientUnits="userSpaceOnUse">
<stop stop-color="#D0232A"/>
<stop offset="1" stop-color="#DF1F29"/>
</linearGradient>
<linearGradient id="paint6_linear_350_23422" x1="187.834" y1="54.7734" x2="206.62" y2="54.7734" gradientUnits="userSpaceOnUse">
<stop stop-color="#D0232A"/>
<stop offset="1" stop-color="#DF1F29"/>
</linearGradient>
</defs>
</svg>
